<?xml version="1.0" encoding="iso-8859-1"?>
<!-- Generator: Adobe Illustrator 19.0.0, SVG Export Plug-In . SVG Version: 6.00 Build 0)  -->
<svg version="1.1" id="Capa_1" xmlns="http://www.w3.org/2000/svg" xmlns:xlink="http://www.w3.org/1999/xlink" x="0px" y="0px"
	 viewBox="0 0 512 512" style="enable-background:new 0 0 512 512;" xml:space="preserve">
<g>
	<g>
		<path d="M50.931,328.783v80.775h131.646l25.379-80.775H50.931z M160.557,379.558H80.931v-20.775h86.153L160.557,379.558z"/>
	</g>
</g>
<g>
	<g>
		<path d="M304.476,328.783l25.378,80.775H461.5v-80.775H304.476z M431.5,379.558h-79.626l-6.527-20.775H431.5V379.558z"/>
	</g>
</g>
<g>
	<g>
		<path d="M511.69,282.79L442.55,56.45l-28.69,8.76l66.46,217.58H31.69L98.15,65.21l-28.69-8.76L0.32,282.79L0,283.84v3.15v168.56
			h223.86l10.454-34.666h43.371l10.455,34.666H512V286.99v-3.18L511.69,282.79z M201.57,425.55H30V312.79h205.57L201.57,425.55z
			 M243.362,390.884L256,348.976l12.638,41.908H243.362z M482,425.55H310.43l-34-112.76H482V425.55z"/>
	</g>
</g>
<g>
</g>
<g>
</g>
<g>
</g>
<g>
</g>
<g>
</g>
<g>
</g>
<g>
</g>
<g>
</g>
<g>
</g>
<g>
</g>
<g>
</g>
<g>
</g>
<g>
</g>
<g>
</g>
<g>
</g>
</svg>
