<?xml version="1.0" encoding="iso-8859-1"?>
<!-- Generator: Adobe Illustrator 19.0.0, SVG Export Plug-In . SVG Version: 6.00 Build 0)  -->
<svg version="1.1" id="Capa_1" xmlns="http://www.w3.org/2000/svg" xmlns:xlink="http://www.w3.org/1999/xlink" x="0px" y="0px"
	 viewBox="0 0 512 512" style="enable-background:new 0 0 512 512;" xml:space="preserve">
<g>
	<g>
		<path d="M221.99,290.011c-8.784-8.786-20.464-13.623-32.886-13.623s-24.103,4.837-32.886,13.623
			c-18.134,18.134-18.134,47.639,0,65.773c8.785,8.785,20.464,13.623,32.886,13.623s24.103-4.837,32.886-13.622
			c8.785-8.785,13.622-20.464,13.622-32.887C235.612,310.475,230.775,298.796,221.99,290.011z M200.781,334.574
			c-3.12,3.12-7.266,4.837-11.677,4.837s-8.559-1.718-11.677-4.836c-6.438-6.439-6.438-16.915,0-23.354
			c3.119-3.119,7.267-4.836,11.677-4.836c4.411,0,8.559,1.718,11.677,4.837c3.119,3.118,4.836,7.266,4.836,11.676
			S203.9,331.455,200.781,334.574z"/>
	</g>
</g>
<g>
	<g>
		
			<rect x="92.871" y="365.51" transform="matrix(0.7071 -0.7071 0.7071 0.7071 -254.1644 194.6398)" width="29.995" height="77.226"/>
	</g>
</g>
<g>
	<g>
		<path d="M442.888,0l-17.021,17.021L415.843,6.998l-21.209,21.209l10.023,10.023L393.868,49.02l-10.024-10.024l-21.209,21.21
			l10.024,10.023L354.958,87.93l6.841,6.841L248.888,207.68c-13.398-6.008-27.199-8.888-40.516-8.377
			c-24.471,0.953-47.061,12.765-67.142,35.106l-1.188,1.244l-0.858,1.661c-0.591,1.033-11.582,19.764-31.709,22.786
			c-57.806,8.694-95.224,38.737-105.362,84.601C-11.43,406.049,44.445,462.784,46.83,465.17C48.958,467.298,94.344,512,147.675,512
			c6.447,0,13.011-0.654,19.628-2.115c45.859-10.138,75.903-47.556,84.598-105.364c3.021-20.114,21.734-31.104,22.784-31.705
			l1.477-0.761l1.431-1.286c22.341-20.08,34.152-42.67,35.105-67.142c0.519-13.315-2.366-27.118-8.376-40.517L417.23,150.203
			l6.84,6.84L512,69.113L442.888,0z M258.625,347.475c-7.089,4.33-31.707,21.434-36.386,52.589
			c-4.752,31.597-19.264,71.217-61.407,80.533c-45.213,9.986-92.339-36.187-92.774-36.619c-0.468-0.471-46.637-47.595-36.655-92.806
			c9.316-42.147,48.937-56.659,80.531-61.41c31.157-4.679,48.262-29.297,52.592-36.386c24.087-26.142,50.713-31.089,79.185-14.724
			l29.637,29.637C289.715,296.762,284.764,323.39,258.625,347.475z M286.246,238.768l-13.013-13.013l22.061-22.061l13.013,13.013
			L286.246,238.768z M329.517,195.497l-13.013-13.013l21.682-21.682l13.013,13.013L329.517,195.497z M372.409,152.605
			l-13.013-13.013l23.612-23.612l2.916,2.914l10.098,10.098L372.409,152.605z M397.376,87.93l45.511-45.511l26.694,26.693
			l-45.511,45.511L397.376,87.93z"/>
	</g>
</g>
<g>
</g>
<g>
</g>
<g>
</g>
<g>
</g>
<g>
</g>
<g>
</g>
<g>
</g>
<g>
</g>
<g>
</g>
<g>
</g>
<g>
</g>
<g>
</g>
<g>
</g>
<g>
</g>
<g>
</g>
</svg>
