<?xml version="1.0" encoding="iso-8859-1"?>
<!-- Generator: Adobe Illustrator 19.0.0, SVG Export Plug-In . SVG Version: 6.00 Build 0)  -->
<svg version="1.1" id="Capa_1" xmlns="http://www.w3.org/2000/svg" xmlns:xlink="http://www.w3.org/1999/xlink" x="0px" y="0px"
	 viewBox="0 0 512 512" style="enable-background:new 0 0 512 512;" xml:space="preserve">
<g>
	<g>
		<path d="M489.893,361.479V46.824H22.107v314.655H0v42.779c0,33.59,28.843,60.918,64.296,60.918h383.408
			c35.453,0,64.296-27.328,64.296-60.918v-42.779H489.893z M52.107,76.824h407.785v284.655H315.055l-9.654,22.274H206.6
			l-9.654-22.274H52.107V76.824z M482,404.258c0,17.048-15.385,30.918-34.296,30.918H64.296c-18.911,0-34.296-13.87-34.296-30.918
			v-12.779h147.252l9.654,22.274h138.188l9.654-22.274H482V404.258z"/>
	</g>
</g>
<g>
	<g>
		<path d="M79,102.176v231.91h354v-231.91H79z M403,304.086H109v-171.91h294V304.086z"/>
	</g>
</g>
<g>
</g>
<g>
</g>
<g>
</g>
<g>
</g>
<g>
</g>
<g>
</g>
<g>
</g>
<g>
</g>
<g>
</g>
<g>
</g>
<g>
</g>
<g>
</g>
<g>
</g>
<g>
</g>
<g>
</g>
</svg>
