<svg width="440" height="371" viewBox="216 226 441 382" xmlns="http://www.w3.org/2000/svg"><g fill="none" fill-rule="evenodd"><path d="M231.095134,124.159539 C236.94693,130.007465 236.94693,139.488571 231.095134,145.336498 C225.243337,151.184424 215.755957,151.184424 209.904161,145.336498 C204.052365,139.488571 204.052365,130.007465 209.904161,124.159539 C215.755957,118.311613 225.243337,118.311613 231.095134,124.159539 L231.095134,124.159539 Z" stroke="#C8D4EC" stroke-width="20" transform="translate(218 236)"/><path d="M257.374356,97.8976959 C277.739898,118.24977 277.739898,151.246083 257.374356,171.598157 C237.008814,191.95023 203.990665,191.95023 183.625123,171.598157 C163.259581,151.246083 163.259581,118.24977 183.625123,97.8976959 C203.990665,77.5456221 237.008814,77.5456221 257.374356,97.8976959 L257.374356,97.8976959 Z" stroke="#445AA8" stroke-width="20" transform="translate(218 236)"/><path d="M286.473393,68.8179026 C322.909317,105.22973 322.909317,164.265349 286.473393,200.678134 C250.03747,237.089961 190.962783,237.089961 154.525901,200.678134 C118.089978,164.265349 118.089978,105.22973 154.525901,68.8179026 C190.962783,32.4060755 250.03747,32.4060755 286.473393,68.8179026 L286.473393,68.8179026 Z" stroke="#445AA8" stroke-width="20" transform="translate(218 236)"/><path d="M315.159017,40.1512314 C367.437971,92.395612 367.437971,177.100609 315.159017,229.34499 C262.880063,281.58937 178.119011,281.58937 125.840057,229.34499 C73.5620732,177.100609 73.5620732,92.395612 125.840057,40.1512314 C178.119011,-12.0931492 262.880063,-12.0931492 315.159017,40.1512314 L315.159017,40.1512314 Z" stroke="#445AA8" stroke-width="20" transform="translate(218 236)"/><path d="M239.13695 75.6474654C239.321403 75.8502304 239.505857 76.0437788 239.671866 76.2557604L239.312181 76.578341C238.131676 77.9423963 236.019681 78.1728111 234.313483 77.5921659 232.598063 77.0023041 231.205437 75.7580645 229.905038 74.5046083L229.619134 74.0806452C230.061824 73.7764977 230.522958 73.5 231.011761 73.2419355 232.422832 72.4861751 233.963021 71.90553 235.161971 70.8456221 235.466319 70.578341 235.743 70.264977 235.98279 69.9239631 236.001235 72.218894 237.578315 73.9700461 239.13695 75.6474654M244.827349 41.7949309L244.753567 41.8870968C243.877412 41.2142857 243.822076 39.8133641 244.430773 38.9009217 245.048693 37.9884793 246.164639 37.5092166 247.262139 37.3709677 248.359639 37.2235023 249.494029 37.3709677 250.517748 37.7949309 251.707475 38.2741935 252.712748 39.1036866 253.801025 39.7857143 255.525668 40.8732719 257.508546 41.6105991 259.546761 41.6751152 260.007895 41.6935484 260.469029 41.6751152 260.930164 41.6751152 261.667979 41.6658986 262.405794 41.702765 263.088273 41.9608295 264.204218 42.375576 265.098819 43.7304147 264.499345 44.7626728 264.287223 45.1221198 263.936761 45.3709677 263.586298 45.5829493 261.778651 46.6889401 259.592874 47.0852535 257.490101 46.7995392 255.959134 46.5967742 254.474282 46.0345622 253.229218 45.1036866 251.96571 44.1543779 250.86821 42.8364055 249.318798 42.5138249 248.497979 42.3479263 247.658714 42.4861751 246.81945 42.4677419 246.109303 42.4400922 245.334597 42.2741935 244.827349 41.7949309M233.981466 36.3387097C234.497937 36.9470046 234.940626 37.7211982 234.820731 38.5046083 234.691613 39.4170507 233.833903 40.0990783 232.93008 40.2741935 232.026256 40.4493088 231.094765 40.218894 230.227832 39.9239631 228.586193 39.3525346 227.009113 38.5230415 225.284471 38.3479263 223.163252 38.1267281 221.042034 38.9193548 218.911592 38.7534562 216.200122 38.5322581 213.885227 36.7995392 211.745563 35.1313364 211.11842 34.6520737 209.771908 34.3018433 210.334492 33.7580645 211.044639 32.2465438 212.93529 31.4078341 214.540038 31.8870968 215.711319 32.2373272 216.624366 33.1682028 217.786424 33.5737327 219.437286 34.1451613 221.23571 33.5552995 222.95113 33.2142857 226.889218 32.4308756 231.408336 33.2603687 233.981466 36.3387097" fill="#FEFEFE" transform="translate(218 290.006)"/><path d="M236.831277,65.8225806 C238.113231,66.2834101 239.450521,66.6428571 240.806256,66.5506912 C241.820752,66.4861751 242.853693,66.1359447 243.619176,65.4907834 L244.200206,65.7211982 C246.976235,68.8640553 249.106676,72.4677419 250.656088,76.3294931 C251.753588,79.0483871 252.565185,81.90553 253.100101,84.8179724 C254.077706,90.062212 254.206824,95.5092166 253.598126,100.781106 C252.177832,113.158986 247.188357,124.827189 241.783861,136.062212 C239.450521,140.919355 236.960395,145.979263 237.126403,151.370968 C225.856277,144.854839 217.030164,126.006912 213.525542,108.66129 C212.298924,102.670507 211.727118,96.8548387 211.902349,91.7857143 C211.97613,89.8041475 212.123693,87.8225806 212.381929,85.859447 C212.972181,81.3617512 214.134239,76.9470046 216.237013,72.9470046 C219.271277,67.2050691 223.928735,62.6428571 230.2555,61.1497696 C230.172496,61.4262673 230.107937,61.7211982 230.209387,61.9884793 C230.301613,62.2741935 230.559849,62.4677419 230.808861,62.6520737 C232.662622,63.9700461 234.691613,65.0483871 236.831277,65.8225806 L236.831277,65.8225806 Z M239.671866,76.2557604 C239.505857,76.0437788 239.321403,75.8502304 239.13695,75.6474654 C237.578315,73.9700461 236.001235,72.218894 235.98279,69.9239631 C235.743,70.264977 235.466319,70.578341 235.161971,70.8456221 C233.963021,71.90553 232.422832,72.4861751 231.011761,73.2419355 C230.522958,73.5 230.061824,73.7764977 229.619134,74.0806452 L229.905038,74.5046083 C231.205437,75.7580645 232.598063,77.0023041 234.313483,77.5921659 C236.019681,78.1728111 238.131676,77.9423963 239.312181,76.578341 L239.671866,76.2557604 Z" fill="#FEFEFE" transform="translate(218 290.006)"/><path d="M312.770899,259.426267 C311.922412,257.702765 311.322937,254.523041 312.457328,252.974654 C314.163525,250.642857 317.760374,251.481567 320.508735,252.384793 C323.06342,253.223502 325.950122,253.896313 328.348021,252.68894 C330.74592,251.481567 331.723525,247.573733 329.445521,246.154378 C328.209681,245.389401 326.623378,245.647465 325.175416,245.702765 C320.674744,245.868664 316.432307,243.831797 312.263651,242.145161 C311.000143,241.638249 309.699744,241.158986 308.380899,240.771889 C307.615416,237.822581 307.615416,237.822581 308.676025,233.334101 C308.869702,232.513825 309.081824,231.684332 309.293945,230.845622 L310.289996,231.09447 C313.508714,231.426267 316.81966,231.407834 319.927706,230.486175 C323.035752,229.573733 325.940899,227.675115 327.610206,224.891705 C327.960668,224.31106 328.246571,223.702765 328.486361,223.06682 C339.645815,231.619816 351.561529,241.435484 354.070101,255.251152 C354.724912,258.827189 354.688021,262.495392 354.641908,266.135945 C354.595794,270.006912 354.51279,274.016129 352.871151,277.518433 C350.528588,282.513825 345.474555,285.592166 340.595752,288.182028 C336.178084,290.532258 331.677412,292.725806 327.102958,294.762673 C324.363819,295.979263 321.550899,297.14977 318.581193,297.509217 C316.229408,297.785714 315.8605,297.09447 313.075248,298.163594 C312.521887,297.887097 311.903966,297.675115 311.33216,297.5 C309.625962,296.983871 307.910542,296.476959 306.204345,295.960829 C305.715542,295.278802 306.287349,294.264977 307.062055,293.951613 C307.845983,293.638249 308.712916,293.785714 309.552181,293.831797 C311.147706,293.93318 312.761676,293.665899 314.228084,293.057604 C315.436256,292.569124 316.635206,291.730415 316.958,290.467742 C317.33613,288.993088 316.303189,287.4447 314.956676,286.707373 C313.610164,285.979263 312.033084,285.87788 310.502118,285.794931 C308.482349,285.675115 303.834113,284.172811 301.823567,284.052995 C291.060689,282.301843 265.218714,288.762673 248.525647,282.292627 C246.183084,281.389401 244.200206,279.721198 242.22655,278.163594 L242.106655,278.218894 C243.757517,281.970046 244.486109,285.942396 242.816803,289.573733 C241.33195,292.808756 238.251571,294.956221 235.291088,296.919355 C232.321382,298.900922 229.25945,300.873272 226.10529,302.633641 C219.695521,306.200461 212.898399,308.882488 205.658588,308.873272 C199.138147,308.864055 192.848273,306.642857 186.45695,305.407834 C173.618966,302.919355 160.402853,304.375576 147.334303,304.246544 C134.265752,304.126728 120.468609,302.089862 110.295983,293.887097 C97.9006891,283.887097 93.5199118,266.486175 95.143105,250.642857 C96.0100378,242.28341 98.3802689,233.93318 103.176067,227.029954 C107.971866,220.126728 115.368462,214.790323 123.69655,213.619816 L123.733441,213.463134 C124.563483,213.665899 125.402748,213.794931 126.260458,213.841014 C127.763756,213.93318 129.294723,213.776498 130.678126,213.195853 C131.628063,212.799539 132.448882,212.237327 133.19592,211.5553 C144.143252,210.495392 154.684786,210.052995 165.253987,210.218894 C174.246109,210.357143 183.256676,210.928571 192.553147,211.93318 C199.608504,212.698157 206.673084,213.711982 213.765332,213.52765 C233.280542,213.011521 252.002601,203.241935 270.807664,208.495392 L271.434807,208.504608 C271.416361,209.702765 271.554702,210.910138 271.757601,212.099078 C272.320185,215.370968 273.399239,218.615207 275.35445,221.297235 C277.300437,223.970046 280.205584,226.052995 283.479639,226.550691 C283.608756,232.587558 283.747097,236.191244 284.448021,243.426267 L284.936824,244.172811 C283.147622,244.993088 281.708882,246.762673 282.299134,248.569124 L282.382139,249.06682 C282.059345,249.12212 281.754996,249.214286 281.469092,249.352535 C280.205584,249.960829 279.366319,251.223502 278.886739,252.541475 C278.416382,253.868664 278.259597,255.269585 277.992139,256.652074 C277.577118,258.762673 276.885416,260.864055 276.96842,263.020737 C277.060647,265.177419 278.185815,268.347926 281.450647,268.495392 C282.345248,268.486175 283.359744,268.725806 284.097559,268.218894 C285.158168,267.481567 285.397958,266.034562 285.517853,264.74424 C285.646971,263.343318 285.74842,261.93318 285.822202,260.523041 L287.445395,260.615207 C287.399282,261.112903 287.390059,261.619816 287.390059,262.108295 C287.362391,265.278802 287.334723,268.449309 287.307055,271.610599 C287.297832,272.569124 287.307055,273.592166 287.832748,274.384793 C288.367664,275.177419 288.976361,275.610599 290.396655,275.85023 C292.167412,275.960829 293.633819,275.352535 294.482307,273.794931 C294.731319,273.334101 294.814324,272.827189 294.814324,272.301843 L297.073882,272.264977 C297.083105,273.011521 297.10155,273.758065 297.110773,274.495392 C297.138441,275.785714 297.184555,277.158986 297.931592,278.200461 C298.429618,278.891705 299.324218,279.251152 300.264933,279.306452 C300.901298,279.389401 301.528441,279.288018 302.109471,279.039171 C302.247811,278.983871 302.386151,278.919355 302.524492,278.845622 C302.542937,278.836406 302.55216,278.836406 302.561382,278.827189 C303.483651,278.31106 304.26758,277.453917 304.719492,276.486175 C305.420416,274.983871 305.484975,273.278802 305.383525,271.610599 C305.761655,271.06682 307.228063,270.882488 307.864429,271.06682 C308.491571,271.251152 309.017265,271.684332 309.524513,272.108295 C311.221487,273.490783 313.066025,274.836406 315.224134,275.168203 C317.382244,275.509217 319.900038,274.486175 320.564071,272.403226 C320.979092,271.076037 320.573294,269.610599 319.946151,268.366359 C319.309786,267.12212 318.452076,265.988479 317.889492,264.707373 C317.041004,262.771889 316.598315,260.228111 314.596992,259.5553 C314.015962,259.361751 313.398042,259.380184 312.826235,259.573733 L312.770899,259.426267 Z" fill="#4459A8" transform="translate(218 290.006)"/><path d="M366.188714,119.785714 C366.603735,121.942396 367.009534,124.108295 367.415332,126.274194 C368.30071,130.956221 369.149197,135.960829 367.479891,140.403226 C367.415332,140.587558 367.34155,140.762673 367.267769,140.947005 C366.336277,143.131336 364.786866,145.020737 362.942328,146.513825 C358.967349,149.721198 353.516739,151.029954 348.518042,149.979263 C343.519345,148.928571 339.055563,145.52765 336.722223,140.993088 C335.560164,138.735023 334.905353,136.25576 334.37966,133.785714 C332.80258,126.403226 332.313777,118.449309 335.394155,111.564516 C336.039744,110.135945 336.934345,108.71659 338.031845,107.564516 C339.544366,105.979263 341.435017,104.900922 343.593126,104.974654 L343.759134,105.158986 C342.81842,105.979263 341.933042,106.735023 341.121445,107.407834 C339.433693,112.33871 343.233441,117.942396 346.922517,121.610599 C350.298021,124.965438 355.278273,127.90553 359.603714,125.923963 C361.927832,124.864055 363.449576,122.624424 364.851424,120.486175 C365.091214,120.117512 365.331004,119.748848 365.570794,119.380184 L366.188714,119.785714 Z" fill="#C8D4EC" transform="translate(218 290.006)"/><path d="M329.012055,114.753456 C331.612853,111.831797 334.693231,109.352535 338.031845,107.564516 C336.934345,108.71659 336.039744,110.135945 335.394155,111.564516 C332.313777,118.449309 332.80258,126.403226 334.37966,133.785714 C334.905353,136.25576 335.560164,138.735023 336.722223,140.993088 C339.055563,145.52765 343.519345,148.928571 348.518042,149.979263 C353.516739,151.029954 358.967349,149.721198 362.942328,146.513825 C364.786866,145.020737 366.336277,143.131336 367.267769,140.947005 C367.34155,140.762673 367.415332,140.587558 367.479891,140.403226 C366.991088,148.799539 364.427181,157.398618 358.441655,163.288018 C353.848756,167.813364 346.913294,170.218894 340.706424,169.131336 C338.658987,168.771889 336.685332,168.034562 334.905353,166.864055 C332.258441,165.131336 330.211004,162.633641 328.449471,160.006912 C322.897412,151.721198 319.844702,141.564516 321.043651,131.665899 C321.790689,125.518433 324.769618,119.536866 329.012055,114.753456" fill="#C8D4EC" transform="translate(218 290.006)"/><path d="M316.035731 123.195853C316.487643 122.559908 316.994891 121.951613 317.548252 121.389401 319.208336 119.702765 321.228105 118.440092 323.229429 117.186636 324.520605 116.375576 327.31508 115.564516 329.012055 114.753456 324.769618 119.536866 321.790689 125.518433 321.043651 131.665899 319.844702 141.564516 322.897412 151.721198 328.449471 160.006912 330.211004 162.633641 332.258441 165.131336 334.905353 166.864055 336.685332 168.034562 338.658987 168.771889 340.706424 169.131336 336.565437 173.5553 328.532475 174.790323 321.58779 172.799539 315.96195 163.417051 308.344008 155.12212 304.378252 144.928571 302.303147 139.573733 301.307097 133.868664 299.517895 128.403226 295.044891 114.781106 285.471739 102.882488 273.113336 95.6013825 268.538882 92.9101382 263.595521 90.8179724 258.984176 88.2281106L259.094849 88.0437788C263.245059 89.2880184 267.524387 90.0714286 271.646929 91.4078341 290.710227 97.6013825 305.309744 119.675115 314.652328 122.642857L316.035731 123.195853zM190.431929 83.7949309C190.441151 83.6290323 190.459597 83.4539171 190.468819 83.2880184 190.98529 76.8548387 196.408231 71.1589862 202.818 70.3202765L203.518924 70.1359447C205.022223 76.0806452 207.798252 81.5368664 212.381929 85.859447 212.123693 87.8225806 211.97613 89.8041475 211.902349 91.7857143 211.727118 96.8548387 212.298924 102.670507 213.525542 108.66129L213.433315 108.679724C210.592727 108.559908 208.047265 106.956221 205.695479 105.352535 201.82195 102.707373 197.976088 99.8963134 195.03405 96.2465438 192.193462 92.7165899 190.247475 88.2926267 190.431929 83.7949309M91.8321597 105.592166C94.1839454 106.68894 96.0377059 109.103687 97.1352059 111.564516 100.215584 118.449309 99.7175588 126.403226 98.1497017 133.785714 97.6147857 136.25576 96.9691975 138.735023 95.8071387 140.993088 93.4645756 145.52765 89.0100168 148.928571 84.0020966 149.979263 79.0033992 151.029954 73.5527899 149.721198 69.5778109 146.513825 68.4803109 145.629032 67.4934832 144.596774 66.6726639 143.453917L66.6726639 143.4447C66.5435462 143.223502 66.3959832 143.002304 66.2299748 142.799539 65.8518445 142.209677 65.5290504 141.592166 65.2523697 140.947005 63.2971597 136.375576 64.1917605 131.14977 65.1048067 126.274194 65.5198277 124.108295 65.9256261 121.942396 66.3314244 119.785714L66.9493445 119.380184C67.1891345 119.748848 67.4289244 120.117512 67.6687143 120.486175 69.070563 122.624424 70.5923067 124.864055 72.9164244 125.923963 77.2418655 127.90553 82.2221176 124.965438 85.5976218 121.610599 89.2959202 117.942396 93.0864454 112.33871 91.407916 107.407834 90.5963193 106.735023 89.7109412 105.979263 88.7702269 105.158986L88.9362353 104.974654C89.9599538 104.937788 90.9191134 105.168203 91.8137143 105.592166L91.8321597 105.592166z" fill="#C8D4EC" transform="translate(218 290.006)"/><path d="M116.825647 115.103687C115.423798 118.200461 114.732097 121.509217 114.483084 124.900922L114.473861 124.900922C114.114176 128.062212 111.790059 130.679724 110.434324 133.564516 106.182664 142.624424 103.461971 152.301843 100.7505 161.93318 100.104912 164.237327 99.4501008 166.550691 99.237979 168.937788 98.9797437 171.87788 99.3947647 174.845622 100.012685 177.739631L98.8875168 177.997696C91.1589034 177.011521 84.1035462 172.624424 78.9296176 166.799539 73.7464664 160.974654 70.2971807 153.794931 67.8623908 146.394009 67.5303739 145.398618 67.1891345 144.357143 66.6726639 143.453917 67.4934832 144.596774 68.4803109 145.629032 69.5778109 146.513825 73.5527899 149.721198 79.0033992 151.029954 84.0020966 149.979263 89.0100168 148.928571 93.4645756 145.52765 95.8071387 140.993088 96.9691975 138.735023 97.6147857 136.25576 98.1497017 133.785714 99.7175588 126.403226 100.215584 118.449309 97.1352059 111.564516 96.0377059 109.103687 94.1839454 106.68894 91.8321597 105.592166 95.4751218 106.559908 98.8045126 106.347926 102.447475 107.315668 104.642475 107.90553 106.85592 108.495392 108.875689 109.52765 110.904681 110.559908 115.820374 113.06682 116.825647 115.103687M131.545059 107.518433C131.019366 108.550691 130.539786 109.5 130.133987 110.347926L129.691298 110.366359C129.857307 115.988479 131.572727 121.453917 133.850731 126.587558 134.985122 129.158986 136.313189 131.711982 138.360626 133.638249 140.408063 135.564516 143.31321 136.762673 146.052349 136.145161 147.371193 135.85023 148.56092 135.168203 149.732202 134.495392 152.720353 132.762673 155.874513 130.864055 157.387034 127.758065 158.244744 126.006912 158.493756 124.016129 158.696655 122.071429 159.047118 118.845622 159.342244 115.619816 159.591256 112.384793L160.098504 112.421659C162.653189 117.039171 163.40945 122.467742 162.865311 127.758065 162.726971 129.112903 162.505626 130.458525 162.201277 131.785714 160.725647 138.25576 157.553042 144.218894 153.993084 149.813364 152.268441 152.532258 150.359345 155.260369 147.610983 156.919355 146.218357 157.767281 144.595164 158.31106 142.962748 158.209677 140.629408 158.052995 138.581971 156.605991 136.921887 154.956221 133.048357 151.112903 130.659681 146.062212 128.510794 141.048387 125.421193 133.85023 122.635941 126.218894 123.124744 118.394009 123.309197 115.4447 124.010122 112.430876 125.808546 110.089862 127.155059 108.347926 129.350059 106.993088 131.498945 107.490783L131.545059 107.518433z" fill="#C8D4EC" transform="translate(218 290.006)"/><path d="M133.601718,103.573733 C132.863903,104.965438 132.172202,106.292627 131.545059,107.518433 L131.498945,107.490783 C129.350059,106.993088 127.155059,108.347926 125.808546,110.089862 C124.010122,112.430876 123.309197,115.4447 123.124744,118.394009 C122.635941,126.218894 125.421193,133.85023 128.510794,141.048387 C130.659681,146.062212 133.048357,151.112903 136.921887,154.956221 C138.581971,156.605991 140.629408,158.052995 142.962748,158.209677 C144.595164,158.31106 146.218357,157.767281 147.610983,156.919355 C150.359345,155.260369 152.268441,152.532258 153.993084,149.813364 C157.553042,144.218894 160.725647,138.25576 162.201277,131.785714 C162.505626,130.458525 162.726971,129.112903 162.865311,127.758065 L163.105101,127.785714 C164.045815,133.859447 164.977307,140.089862 163.732244,146.117512 C163.676908,146.394009 163.612349,146.670507 163.54779,146.937788 C162.422622,151.665899 160.061613,156.016129 157.728273,160.292627 C154.159092,166.827189 150.211782,173.739631 143.543777,177.076037 C141.551676,178.071429 139.273672,178.707373 137.097118,178.25576 C134.53321,177.721198 132.504218,175.804147 130.770353,173.841014 C121.400101,163.232719 116.447517,149.269585 114.815101,135.214286 C114.418525,131.813364 114.224849,128.320276 114.483084,124.900922 C114.732097,121.509217 115.423798,118.200461 116.825647,115.103687 C119.54634,109.076037 125.485752,104.126728 132.061529,104.126728 L133.601718,103.573733 Z" fill="#C8D4EC" transform="translate(218 290.006)"/><path d="M114.483084,124.900922 C114.224849,128.320276 114.418525,131.813364 114.815101,135.214286 C116.447517,149.269585 121.400101,163.232719 130.770353,173.841014 C132.504218,175.804147 134.53321,177.721198 137.097118,178.25576 C139.273672,178.707373 141.551676,178.071429 143.543777,177.076037 C150.211782,173.739631 154.159092,166.827189 157.728273,160.292627 C160.061613,156.016129 162.422622,151.665899 163.54779,146.937788 L163.695353,146.974654 C164.516172,152.006912 165.705899,157.739631 166.535941,162.771889 C167.024744,165.767281 167.522769,168.827189 167.033966,171.831797 C166.49905,175.103687 164.829744,178.071429 162.985206,180.827189 C160.900878,183.970046 158.53987,186.928571 155.948294,189.684332 C154.066866,191.711982 152.047097,193.619816 149.916655,195.398618 C145.794113,198.836406 141.228882,201.831797 137.834933,205.988479 C136.313189,207.841014 134.957454,209.988479 133.19592,211.5553 C132.448882,212.237327 131.628063,212.799539 130.678126,213.195853 C129.294723,213.776498 127.763756,213.93318 126.260458,213.841014 C125.402748,213.794931 124.563483,213.665899 123.733441,213.463134 C120.754513,212.762673 117.969261,211.168203 115.663588,209.131336 C112.703105,206.523041 110.443546,203.232719 108.479113,199.813364 C104.688588,193.223502 101.921782,186.062212 100.224807,178.66129 C100.151025,178.357143 100.086466,178.052995 100.012685,177.739631 C99.3947647,174.845622 98.9797437,171.87788 99.237979,168.937788 C99.4501008,166.550691 100.104912,164.237327 100.7505,161.93318 C103.461971,152.301843 106.182664,142.624424 110.434324,133.564516 C111.790059,130.679724 114.114176,128.062212 114.473861,124.900922 L114.483084,124.900922 Z" fill="#C8D4EC" transform="translate(218 290.006)"/><path d="M220.682349,199.601382 C219.870752,200.919355 218.865479,202.080645 217.583525,202.974654 C214.687601,205.002304 210.850962,205.278802 207.401676,204.523041 C203.943168,203.767281 200.770563,202.080645 197.653294,200.412442 C196.260668,199.665899 194.785038,198.817972 193.604534,197.758065 L192.442475,199.112903 C187.07487,201.85023 180.508315,200.440092 175.030038,197.93318 C174.734912,197.804147 174.559681,197.297235 174.734912,197.214286 L174.66113,197.06682 C172.207895,198.357143 169.339639,198.873272 166.6005,198.458525 C166.240815,198.412442 165.88113,198.33871 165.521445,198.25576 C161.35279,197.260369 157.792832,194.071429 156.335647,190.043779 L155.948294,189.684332 C158.53987,186.928571 160.900878,183.970046 162.985206,180.827189 C164.829744,178.071429 166.49905,175.103687 167.033966,171.831797 C167.522769,168.827189 167.024744,165.767281 166.535941,162.771889 C165.705899,157.739631 164.516172,152.006912 163.695353,146.974654 L163.54779,146.937788 C163.612349,146.670507 163.676908,146.394009 163.732244,146.117512 C164.977307,140.089862 164.045815,133.859447 163.105101,127.785714 L162.865311,127.758065 C163.40945,122.467742 162.653189,117.039171 160.098504,112.421659 L159.591256,112.384793 C160.0155,106.771889 160.282958,101.14977 160.384408,95.5276498 C160.412076,94.2834101 160.430521,93.0115207 160.476634,91.7396313 L161.454239,91.7764977 C162.763861,91.0115207 164.064261,90.2465438 165.373882,89.4815668 C169.284303,87.1866359 173.240836,84.8732719 177.603168,83.6474654 C181.9655,82.4124424 186.438504,81.656682 190.431929,83.7949309 C190.247475,88.2926267 192.193462,92.7165899 195.03405,96.2465438 C197.976088,99.8963134 201.82195,102.707373 205.695479,105.352535 C208.047265,106.956221 210.592727,108.559908 213.433315,108.679724 L213.525542,108.66129 C217.030164,126.006912 225.856277,144.854839 237.126403,151.370968 C236.960395,145.979263 239.450521,140.919355 241.783861,136.062212 C247.188357,124.827189 252.177832,113.158986 253.598126,100.781106 C254.206824,95.5092166 254.077706,90.062212 253.100101,84.8179724 L253.561235,84.735023 C255.285878,86.0345622 257.102748,87.1774194 258.984176,88.2281106 C263.595521,90.8179724 268.538882,92.9101382 273.113336,95.6013825 C285.471739,102.882488 295.044891,114.781106 299.517895,128.403226 C301.307097,133.868664 302.303147,139.573733 304.378252,144.928571 C308.344008,155.12212 315.96195,163.417051 321.58779,172.799539 C323.635227,176.218894 325.461319,179.90553 325.793336,183.868664 C326.134576,187.841014 324.723504,192.163594 321.421782,194.394009 L320.840752,194.882488 C325.701109,200.513825 328.707706,207.711982 329.307181,215.12212 C329.528525,217.794931 329.417853,220.587558 328.486361,223.06682 C328.246571,223.702765 327.960668,224.31106 327.610206,224.891705 C325.940899,227.675115 323.035752,229.573733 319.927706,230.486175 C316.81966,231.407834 313.508714,231.426267 310.289996,231.09447 L309.293945,230.845622 C310.23466,227.140553 311.110815,223.352535 310.040983,219.739631 C308.989597,216.191244 306.075227,213.343318 302.644387,211.93318 C299.213546,210.532258 295.321571,210.467742 291.706277,211.306452 C288.755017,211.988479 285.739197,213.4447 284.355794,216.135945 C283.359744,218.071429 283.359744,220.347926 283.405857,222.523041 C283.433525,223.997696 283.461193,225.324885 283.479639,226.550691 C280.205584,226.052995 277.300437,223.970046 275.35445,221.297235 C273.399239,218.615207 272.320185,215.370968 271.757601,212.099078 C271.554702,210.910138 271.416361,209.702765 271.434807,208.504608 C271.434807,208.218894 271.453252,207.93318 271.471697,207.647465 C271.665374,205.241935 272.57842,202.974654 273.805038,200.882488 C269.405815,203.186636 260.948609,202.605991 256.383378,200.624424 C254.382055,199.758065 252.574408,198.476959 251.071109,196.919355 L249.613924,198.062212 C245.638945,200.928571 240.455794,201.5553 235.558546,201.288018 C230.661298,201.011521 225.828609,199.942396 220.931361,199.758065 L220.682349,199.601382 Z" fill="#C8D4EC" transform="translate(218 290.006)"/><path d="M193.604534,197.758065 C194.785038,198.817972 196.260668,199.665899 197.653294,200.412442 C200.770563,202.080645 203.943168,203.767281 207.401676,204.523041 C210.850962,205.278802 214.687601,205.002304 217.583525,202.974654 C218.865479,202.080645 219.870752,200.919355 220.682349,199.601382 L220.931361,199.758065 C225.828609,199.942396 230.661298,201.011521 235.558546,201.288018 C240.455794,201.5553 245.638945,200.928571 249.613924,198.062212 L251.071109,196.919355 C252.574408,198.476959 254.382055,199.758065 256.383378,200.624424 C260.948609,202.605991 269.405815,203.186636 273.805038,200.882488 C272.57842,202.974654 271.665374,205.241935 271.471697,207.647465 C271.453252,207.93318 271.434807,208.218894 271.434807,208.504608 L270.807664,208.495392 C252.002601,203.241935 233.280542,213.011521 213.765332,213.52765 C206.673084,213.711982 199.608504,212.698157 192.553147,211.93318 C183.256676,210.928571 174.246109,210.357143 165.253987,210.218894 L165.253987,210.135945 C166.416046,206.753456 166.821845,203.103687 166.434492,199.536866 L166.6005,198.458525 C169.339639,198.873272 172.207895,198.357143 174.66113,197.06682 L174.734912,197.214286 C174.559681,197.297235 174.734912,197.804147 175.030038,197.93318 C180.508315,200.440092 187.07487,201.85023 192.442475,199.112903 L193.604534,197.758065 Z" fill="#23315D" transform="translate(218 290.006)"/><path d="M311.212265 303.435484L311.120038 305.195853C310.123987 306.394009 308.878924 307.5 307.347958 307.822581 307.145059 307.868664 306.932937 307.896313 306.730038 307.90553L306.766929 309.011521C306.12134 310.550691 304.673378 311.702765 303.050185 312.108295L303.225416 312.790323C302.118693 314.735023 299.720794 315.629032 297.479681 315.665899 295.238567 315.711982 293.043567 315.057604 290.839345 314.66129 284.355794 313.481567 277.466445 314.421659 271.296466 312.080645 266.841908 310.394009 262.885374 307.039171 258.117244 306.781106 255.516445 306.633641 252.906424 307.453917 250.333294 307.076037 248.663987 306.836406 247.114576 306.108295 245.51905 305.610599 243.471613 304.974654 241.341172 304.698157 239.219954 304.421659 234.876067 303.868664 230.532181 303.315668 226.179071 302.753456L226.10529 302.633641C229.25945 300.873272 232.321382 298.900922 235.291088 296.919355 238.251571 294.956221 241.33195 292.808756 242.816803 289.573733 244.486109 285.942396 243.757517 281.970046 242.106655 278.218894L242.22655 278.163594C244.200206 279.721198 246.183084 281.389401 248.525647 282.292627 265.218714 288.762673 291.060689 282.301843 301.823567 284.052995 303.834113 284.172811 308.482349 285.675115 310.502118 285.794931 312.033084 285.87788 313.610164 285.979263 314.956676 286.707373 316.303189 287.4447 317.33613 288.993088 316.958 290.467742 316.635206 291.730415 315.436256 292.569124 314.228084 293.057604 312.761676 293.665899 311.147706 293.93318 309.552181 293.831797 308.712916 293.785714 307.845983 293.638249 307.062055 293.951613 306.287349 294.264977 305.715542 295.278802 306.204345 295.960829 307.910542 296.476959 309.625962 296.983871 311.33216 297.5 311.903966 297.675115 312.521887 297.887097 313.075248 298.163594 313.942181 298.605991 314.670773 299.223502 314.873672 300.145161 315.14113 301.370968 314.255752 302.642857 313.093693 303.131336 312.503441 303.380184 311.857853 303.463134 311.212265 303.435484M300.264933 279.306452C299.324218 279.251152 298.429618 278.891705 297.931592 278.200461 297.184555 277.158986 297.138441 275.785714 297.110773 274.495392 297.10155 273.758065 297.083105 273.011521 297.073882 272.264977 297.036992 270.301843 297.000101 268.33871 296.96321 266.375576 296.935542 264.66129 296.926319 262.854839 297.737916 261.352535 298.549513 259.841014 300.4955 258.790323 302.035689 259.5553 303.299197 260.182028 303.797223 261.711982 304.110794 263.09447 304.682601 265.592166 305.088399 268.126728 305.309744 270.679724 305.337412 270.993088 305.36508 271.297235 305.383525 271.610599 305.484975 273.278802 305.420416 274.983871 304.719492 276.486175 304.26758 277.453917 303.483651 278.31106 302.561382 278.827189 302.55216 278.836406 302.542937 278.836406 302.524492 278.845622 302.395374 278.919355 302.257034 278.983871 302.109471 279.039171 301.556109 279.251152 300.901298 279.352535 300.264933 279.306452M294.657538 259.896313C295.14634 263.297235 294.122622 266.781106 294.574534 270.191244 294.666761 270.882488 294.814324 271.610599 294.814324 272.301843 294.814324 272.827189 294.731319 273.334101 294.482307 273.794931 293.633819 275.352535 292.167412 275.960829 290.396655 275.85023 288.976361 275.610599 288.367664 275.177419 287.832748 274.384793 287.307055 273.592166 287.297832 272.569124 287.307055 271.610599 287.334723 268.449309 287.362391 265.278802 287.390059 262.108295 287.390059 261.619816 287.399282 261.112903 287.445395 260.615207 287.500731 260.126728 287.592958 259.638249 287.777412 259.177419 288.330773 257.767281 289.723399 256.71659 291.23592 256.596774 291.946067 256.532258 292.693105 256.670507 293.274134 257.085253 294.15029 257.711982 294.500752 258.836406 294.657538 259.896313M284.097559 268.218894C283.359744 268.725806 282.345248 268.486175 281.450647 268.495392 278.185815 268.347926 277.060647 265.177419 276.96842 263.020737 276.885416 260.864055 277.577118 258.762673 277.992139 256.652074 278.259597 255.269585 278.416382 253.868664 278.886739 252.541475 279.366319 251.223502 280.205584 249.960829 281.469092 249.352535 281.754996 249.214286 282.059345 249.12212 282.382139 249.06682 283.461193 248.882488 284.641697 249.223502 285.26884 250.108295 285.794534 250.873272 285.859092 251.85023 285.886761 252.771889 285.969765 255.361751 285.951319 257.942396 285.822202 260.523041 285.74842 261.93318 285.646971 263.343318 285.517853 264.74424 285.397958 266.034562 285.158168 267.481567 284.097559 268.218894" fill="#F16536" transform="translate(218 290.006)"/><path d="M312.826235,259.573733 C313.398042,259.380184 314.015962,259.361751 314.596992,259.5553 C316.598315,260.228111 317.041004,262.771889 317.889492,264.707373 C318.452076,265.988479 319.309786,267.12212 319.946151,268.366359 C320.573294,269.610599 320.979092,271.076037 320.564071,272.403226 C319.900038,274.486175 317.382244,275.509217 315.224134,275.168203 C313.066025,274.836406 311.221487,273.490783 309.524513,272.108295 C309.017265,271.684332 308.491571,271.251152 307.864429,271.06682 C307.228063,270.882488 305.761655,271.06682 305.383525,271.610599 C305.36508,271.297235 305.337412,270.993088 305.309744,270.679724 C305.088399,268.126728 304.682601,265.592166 304.110794,263.09447 C303.797223,261.711982 303.299197,260.182028 302.035689,259.5553 C300.4955,258.790323 298.549513,259.841014 297.737916,261.352535 C296.926319,262.854839 296.935542,264.66129 296.96321,266.375576 C297.000101,268.33871 297.036992,270.301843 297.073882,272.264977 L294.814324,272.301843 C294.814324,271.610599 294.666761,270.882488 294.574534,270.191244 C294.122622,266.781106 295.14634,263.297235 294.657538,259.896313 C294.500752,258.836406 294.15029,257.711982 293.274134,257.085253 C292.693105,256.670507 291.946067,256.532258 291.23592,256.596774 C289.723399,256.71659 288.330773,257.767281 287.777412,259.177419 C287.592958,259.638249 287.500731,260.126728 287.445395,260.615207 L285.822202,260.523041 C285.951319,257.942396 285.969765,255.361751 285.886761,252.771889 C285.859092,251.85023 285.794534,250.873272 285.26884,250.108295 C284.641697,249.223502 283.461193,248.882488 282.382139,249.06682 L282.299134,248.569124 C281.708882,246.762673 283.147622,244.993088 284.936824,244.172811 C285.287286,244.006912 285.656193,243.887097 286.015878,243.804147 C288.229324,243.306452 290.571887,243.748848 292.785332,243.232719 C295.044891,242.71659 296.96321,241.260369 299.15821,240.523041 C302.137139,239.509217 305.309744,239.87788 308.380899,240.771889 C309.699744,241.158986 311.000143,241.638249 312.263651,242.145161 C316.432307,243.831797 320.674744,245.868664 325.175416,245.702765 C326.623378,245.647465 328.209681,245.389401 329.445521,246.154378 C331.723525,247.573733 330.74592,251.481567 328.348021,252.68894 C325.950122,253.896313 323.06342,253.223502 320.508735,252.384793 C317.760374,251.481567 314.163525,250.642857 312.457328,252.974654 C311.322937,254.523041 311.922412,257.702765 312.770899,259.426267 L312.826235,259.573733 Z" fill="#F16536" transform="translate(218 290.006)"/><path d="M284.448021 243.426267C283.747097 236.191244 283.608756 232.587558 283.479639 226.550691 283.461193 225.324885 283.433525 223.997696 283.405857 222.523041 283.359744 220.347926 283.359744 218.071429 284.355794 216.135945 285.739197 213.4447 288.755017 211.988479 291.706277 211.306452 295.321571 210.467742 299.213546 210.532258 302.644387 211.93318 306.075227 213.343318 308.989597 216.191244 310.040983 219.739631 311.110815 223.352535 310.23466 227.140553 309.293945 230.845622 309.081824 231.684332 308.869702 232.513825 308.676025 233.334101 307.615416 237.822581 307.615416 237.822581 308.380899 240.771889 305.309744 239.87788 302.137139 239.509217 299.15821 240.523041 296.96321 241.260369 295.044891 242.71659 292.785332 243.232719 290.571887 243.748848 288.229324 243.306452 286.015878 243.804147 285.656193 243.887097 285.287286 244.006912 284.936824 244.172811L284.448021 243.426267zM8.68961765 76.6981567L8.69884034 76.1082949C7.01108824 74.1451613 4.91753782 72.5414747 2.58419748 71.4262673 1.60659244 70.9654378.407642857 70.3202765.462978992 69.2419355.499869748 68.6797235.905668067 68.1912442 1.3852479 67.8778802 2.71331513 67.0115207 4.47484874 67.2880184 6.00581513 67.7119816 8.20081513 68.3202765 10.3681471 69.1958525 12.1389034 70.6336406 9.69489076 67.6751152 7.90568908 66.3018433 5.46167647 63.343318 4.94520588 62.7165899 3.26667647 61.3894009 3.09144538 60.6059908 2.92543697 59.8133641 4.5947437 57.7857143 5.34178151 57.4907834 5.92281092 57.2695853 6.56839916 57.4815668 7.13098319 57.7304147 12.1850168 59.9792627 15.4867395 65.3894009 20.7897857 66.937788 22.3207521 67.3801843 23.9347227 67.4723502 25.5210252 67.5645161 27.5869076 67.6843318 39.853084 65.9700461 41.9097437 66.0806452 41.3932731 65.3617512 40.9690294 64.5691244 40.655458 63.7304147 40.4433361 63.1497696 40.2773277 62.4953917 40.5171176 61.9239631 40.803021 61.2235023 41.5869496 60.8732719 42.3247647 60.7073733 42.998021 60.5691244 43.7266134 60.5322581 44.3353109 60.8364055 44.6765504 61.0023041 44.9532311 61.2695853 45.2391345 61.5184332 47.0283361 63.1036866 49.1403319 64.3110599 51.3998908 65.0668203 61.1390504 69.8502304 56.6660462 72.1359447 61.1390504 77.9884793 64.0903109 81.8410138 79.3077479 96.8917051 88.7702269 105.158986 89.7109412 105.979263 90.5963193 106.735023 91.407916 107.407834 93.0864454 112.33871 89.2959202 117.942396 85.5976218 121.610599 82.2221176 124.965438 77.2418655 127.90553 72.9164244 125.923963 70.5923067 124.864055 69.070563 122.624424 67.6687143 120.486175 67.4289244 120.117512 67.1891345 119.748848 66.9493445 119.380184 63.2418235 113.721198 59.5250798 108.052995 55.8083361 102.394009 52.7464034 97.7119816 48.9189874 92.5599078 43.3484832 92.0806452 39.6778529 91.7672811 36.1640084 93.6290323 32.4841555 93.7764977 30.5842815 93.8502304 28.6936303 93.4539171 26.8306471 93.0668203 24.4788613 92.578341 22.1270756 92.0898618 19.7660672 91.6013825 18.3642185 91.3156682 16.9162563 91.0023041 15.7449748 90.1820276 14.7397017 89.4815668 14.0203319 88.4585253 13.2364034 87.5092166 10.9122857 84.6797235 7.93335714 82.3940092 4.5947437 80.8732719L4.03215966 80.6428571C2.85165546 80.2926267 2.82398739 78.4400922 3.7462563 77.6198157 4.65930252 76.7995392 6.00581513 76.7258065 7.24165546 76.6981567 7.72123529 76.6889401 8.21003782 76.6797235 8.68961765 76.6981567M149.307958 21.3986175C149.630752 22.6428571 149.243399 23.9423963 148.819155 25.1497696 148.109008 27.1589862 147.260521 29.1221198 146.282916 31.0115207 146.052349 31.4631336 145.812559 31.9239631 145.766445 32.4308756 145.729555 32.8917051 145.858672 33.3525346 145.997013 33.7949309 146.670269 36.0898618 146.974618 37.4170507 147.647874 39.7119816 145.351424 42.1912442 143.054975 44.6797235 140.758525 47.1589862 140.371172 47.5737327 139.983819 47.9884793 139.624134 48.4308756 141.579345 43.8778802 138.941655 36.0806452 139.670248 31.1682028 139.956151 29.2235023 140.933756 27.4631336 141.892916 25.7396313 142.69529 24.3018433 143.497664 22.8640553 144.300038 21.4262673 144.807286 20.5230415 145.425206 19.5368664 146.448924 19.3064516 147.721655 19.0207373 148.994387 20.1451613 149.307958 21.3986175" fill="#F16536" transform="translate(218 290.006)"/><path d="M168.7955 47.1497696C169.376529 46.1082949 171.045836 46.218894 171.885101 47.0668203 172.715143 47.9239631 172.94571 49.1774194 173.139387 50.3571429 173.462181 52.3479263 173.784975 54.3479263 174.107769 56.3479263 174.227664 57.1036866 174.356782 57.8686636 174.255332 58.6336406 174.163105 59.343318 173.877202 60.0069124 173.591298 60.6612903 172.484576 63.2603687 171.377853 65.8502304 170.261908 68.4493088 169.717769 69.7211982 169.164408 71.0023041 168.362034 72.1267281 167.421319 73.4631336 166.157811 74.5322581 165.097202 75.7764977 161.445017 80.1082949 160.707202 85.9608295 160.476634 91.7396313 160.430521 93.0115207 160.412076 94.2834101 160.384408 95.5276498 160.282958 101.14977 160.0155 106.771889 159.591256 112.384793 159.342244 115.619816 159.047118 118.845622 158.696655 122.071429 158.493756 124.016129 158.244744 126.006912 157.387034 127.758065 155.874513 130.864055 152.720353 132.762673 149.732202 134.495392 148.56092 135.168203 147.371193 135.85023 146.052349 136.145161 143.31321 136.762673 140.408063 135.564516 138.360626 133.638249 136.313189 131.711982 134.985122 129.158986 133.850731 126.587558 131.572727 121.453917 129.857307 115.988479 129.691298 110.366359L130.133987 110.347926C130.539786 109.5 131.019366 108.550691 131.545059 107.518433 132.172202 106.292627 132.863903 104.965438 133.601718 103.573733 136.571424 97.9700461 140.140605 91.4447005 142.095815 87.3525346 143.838903 83.7119816 145.628105 79.8317972 145.203861 75.8133641 145.019408 74.0069124 144.383042 72.2741935 143.755899 70.5691244 142.151151 66.1912442 140.546403 61.8133641 138.941655 57.4354839 138.213063 55.4539171 137.475248 53.3064516 138.028609 51.2603687 138.314513 50.2004608 138.913987 49.2880184 139.624134 48.4400922L139.624134 48.4308756C139.983819 47.9884793 140.371172 47.5737327 140.758525 47.1589862 143.054975 44.6797235 145.351424 42.1912442 147.647874 39.7119816 149.28029 37.9516129 151.004933 36.1267281 153.255269 35.2788018 156.806004 33.9423963 160.73487 35.3341014 164.26716 36.7165899 165.696676 37.2788018 167.181529 38.8087558 167.983903 40.1082949 168.7955 41.4170507 169.939113 43.4907834 166.84029 45.3156682 167.172307 45.5645161 167.485878 45.8410138 167.734891 46.1728111 167.947013 46.4585253 168.168357 46.8548387 168.334366 47.3248848L168.7955 47.1497696zM423.830521 76.6981567C424.319324 76.6797235 424.808126 76.6889401 425.287706 76.6981567 426.514324 76.7258065 427.860836 76.7995392 428.783105 77.6198157 429.696151 78.4400922 429.677706 80.2926267 428.487979 80.6428571L427.925395 80.8732719C424.596004 82.3940092 421.607853 84.6797235 419.283735 87.5092166 418.509029 88.4585253 417.780437 89.4815668 416.784387 90.1820276 415.603882 91.0023041 414.15592 91.3156682 412.754071 91.6013825 410.402286 92.0898618 408.041277 92.578341 405.689492 93.0668203 403.826508 93.4539171 401.935857 93.8502304 400.035983 93.7764977 396.365353 93.6290323 392.842286 91.7672811 389.180878 92.0806452 383.601151 92.5599078 379.773735 97.7119816 376.711803 102.394009 372.995059 108.052995 369.287538 113.721198 365.570794 119.380184 365.331004 119.748848 365.091214 120.117512 364.851424 120.486175 363.449576 122.624424 361.927832 124.864055 359.603714 125.923963 355.278273 127.90553 350.298021 124.965438 346.922517 121.610599 343.233441 117.942396 339.433693 112.33871 341.121445 107.407834 341.933042 106.735023 342.81842 105.979263 343.759134 105.158986 353.221613 96.8917051 368.429828 81.8410138 371.381088 77.9884793 375.854092 72.1359447 371.381088 69.8502304 381.120248 65.0668203 383.389029 64.3110599 385.501025 63.1036866 387.290227 61.5184332 387.566908 61.2695853 387.852811 61.0023041 388.184828 60.8364055 388.802748 60.5322581 389.522118 60.5691244 390.195374 60.7073733 390.933189 60.8732719 391.717118 61.2235023 392.003021 61.9239631 392.242811 62.4953917 392.086025 63.1497696 391.864681 63.7304147 391.560332 64.5691244 391.136088 65.3617512 390.610395 66.0806452 392.667055 65.9700461 404.942454 67.6843318 406.999113 67.5645161 408.594639 67.4723502 410.199387 67.3801843 411.730353 66.937788 417.033399 65.3894009 420.344345 59.9792627 425.389155 57.7304147 425.951739 57.4815668 426.60655 57.2695853 427.178357 57.4907834 427.925395 57.7857143 429.603924 59.8133641 429.428693 60.6059908 429.253462 61.3894009 427.574933 62.7165899 427.067685 63.343318 424.623672 66.3018433 422.834471 67.6751152 420.390458 70.6336406 422.151992 69.1958525 424.319324 68.3202765 426.514324 67.7119816 428.04529 67.2880184 429.806824 67.0115207 431.144113 67.8778802 431.614471 68.1912442 432.029492 68.6797235 432.05716 69.2419355 432.112496 70.3202765 430.922769 70.9654378 429.945164 71.4262673 427.611824 72.5414747 425.50905 74.1451613 423.821298 76.1082949L423.830521 76.6981567zM234.820731 38.5046083C234.940626 37.7211982 234.497937 36.9470046 233.981466 36.3387097 231.408336 33.2603687 226.889218 32.4308756 222.95113 33.2142857 221.23571 33.5552995 219.437286 34.1451613 217.786424 33.5737327 216.624366 33.1682028 215.711319 32.2373272 214.540038 31.8870968 212.93529 31.4078341 211.044639 32.2465438 210.334492 33.7580645 209.771908 34.3018433 211.11842 34.6520737 211.745563 35.1313364 213.885227 36.7995392 216.200122 38.5322581 218.911592 38.7534562 221.042034 38.9193548 223.163252 38.1267281 225.284471 38.3479263 227.009113 38.5230415 228.586193 39.3525346 230.227832 39.9239631 231.094765 40.218894 232.026256 40.4493088 232.93008 40.2741935 233.833903 40.0990783 234.691613 39.4170507 234.820731 38.5046083L234.820731 38.5046083zM201.351592 55.0115207C200.816676 55.2880184 200.207979 55.4631336 199.608504 55.5092166 198.012979 55.6105991 196.463567 54.9562212 195.052496 54.1820276 194.259345 53.7488479 193.466193 53.2419355 192.958945 52.4861751 191.584765 50.4124424 192.958945 47.5276498 192.165794 45.1682028 191.843 44.2281106 191.197412 43.4354839 190.680941 42.578341 188.319933 38.6336406 189.039303 33.4907834 191.049849 29.3617512 191.769218 27.8870968 192.70071 26.421659 194.130227 25.6382488 195.218504 25.0391705 196.500458 24.9285714 197.699408 25.2050691L200.134197 25.0576037C199.783735 16.7073733 205.086782 8.75345622 212.298924 4.53225806 219.52029.320276498 228.327958-.536866359 236.60071.652073733 244.172538 1.74884793 250.905101 4.6797235 257.241088 10.8087558 265.818189 19.1036866 263.577076 36.0437788 260.930164 41.5184332L260.930164 41.6751152C260.469029 41.6751152 260.007895 41.6935484 259.546761 41.6751152 257.508546 41.6105991 255.525668 40.8732719 253.801025 39.7857143 252.712748 39.1036866 251.707475 38.2741935 250.517748 37.7949309 249.494029 37.3709677 248.359639 37.2235023 247.262139 37.3709677 246.164639 37.5092166 245.048693 37.9884793 244.430773 38.9009217 243.822076 39.8133641 243.877412 41.2142857 244.753567 41.8870968L244.827349 41.7949309C245.334597 42.2741935 246.109303 42.4400922 246.81945 42.4677419 247.658714 42.4861751 248.497979 42.3479263 249.318798 42.5138249 250.86821 42.8364055 251.96571 44.1543779 253.229218 45.1036866 254.474282 46.0345622 255.959134 46.5967742 257.490101 46.7995392L257.351761 48.0529954C259.712769 51.7304147 260.358357 56.4585253 259.076403 60.6428571 257.370206 66.1635945 252.620521 70.421659 251.218672 76.0253456L250.656088 76.3294931C249.106676 72.4677419 246.976235 68.8640553 244.200206 65.7211982L243.619176 65.4907834C242.853693 66.1359447 241.820752 66.4861751 240.806256 66.5506912 239.450521 66.6428571 238.113231 66.2834101 236.831277 65.8225806 234.691613 65.0483871 232.662622 63.9700461 230.808861 62.6520737 230.559849 62.4677419 230.301613 62.2741935 230.209387 61.9884793 230.107937 61.7211982 230.172496 61.4262673 230.2555 61.1497696 223.928735 62.6428571 219.271277 67.2050691 216.237013 72.9470046 214.134239 76.9470046 212.972181 81.3617512 212.381929 85.859447 207.798252 81.5368664 205.022223 76.0806452 203.518924 70.1359447 202.310752 65.3248848 201.932622 60.1912442 202.09863 55.09447L201.351592 55.0115207z" fill="#F16536" transform="translate(218 290.006)"/><path d="M232.662622 112.289862C231.528231 112.88894 230.642853 113.939631 230.2555 115.156221 230.172496 115.432719 230.107937 115.72765 230.209387 115.994931 230.301613 116.280645 230.559849 116.474194 230.808861 116.658525 232.662622 117.976498 234.691613 119.054839 236.831277 119.829032 238.113231 120.289862 239.450521 120.649309 240.806256 120.557143 241.820752 120.492627 242.853693 120.142396 243.619176 119.497235 243.877412 119.285253 244.098756 119.036406 244.292433 118.759908 245.316151 117.257604 245.030248 115.211521 244.273987 113.561751 243.508504 111.921198 242.337223 110.492627 241.580962 108.842857 240.409681 106.299078 240.289786 103.405069 240.326676 100.603226M212.381929 139.865899C207.798252 135.543318 205.022223 130.087097 203.518924 124.142396 202.310752 119.331336 201.932622 114.197696 202.09863 109.100922M202.070962 88.262212C202.827223 85.8751152 202.513651 83.0732719 200.908903 81.1470046 200.097307 80.1700461 198.935248 79.497235 197.699408 79.2115207 196.500458 78.935023 195.218504 79.0456221 194.130227 79.6447005 192.70071 80.4281106 191.769218 81.8935484 191.049849 83.3682028 189.039303 87.497235 188.319933 92.6400922 190.680941 96.5847926 191.197412 97.4419355 191.843 98.2345622 192.165794 99.1746544 192.958945 101.534101 191.584765 104.418894 192.958945 106.492627 193.466193 107.248387 194.259345 107.7553 195.052496 108.188479 196.463567 108.962673 198.012979 109.617051 199.608504 109.515668 200.207979 109.469585 200.816676 109.29447 201.351592 109.017972 202.246193 108.53871 202.95634 107.7553 203.131571 106.769124M200.134197 79.0640553C199.783735 70.7138249 205.086782 62.7599078 212.298924 58.5387097 219.52029 54.3267281 228.327958 53.4695853 236.60071 54.6585253 244.172538 55.7552995 250.905101 58.6861751 257.241088 64.8152074 265.818189 73.1101382 263.577076 90.0502304 260.930164 95.5248848M251.218672 130.031797C252.620521 124.428111 257.370206 120.170046 259.076403 114.649309 260.358357 110.464977 259.712769 105.736866 257.351761 102.059447" stroke="#111840" stroke-width="3" stroke-linecap="round" transform="translate(218 236)"/><path d="M230.2555 115.156221C223.928735 116.649309 219.271277 121.211521 216.237013 126.953456 214.134239 130.953456 212.972181 135.368203 212.381929 139.865899 212.123693 141.829032 211.97613 143.810599 211.902349 145.792166 211.727118 150.86129 212.298924 156.676959 213.525542 162.667742 217.030164 180.013364 225.856277 198.86129 237.126403 205.377419M244.200206 119.72765C246.976235 122.870507 249.106676 126.474194 250.656088 130.335945 251.753588 133.054839 252.565185 135.911982 253.100101 138.824424 254.077706 144.068664 254.206824 149.515668 253.598126 154.787558 252.177832 167.165438 247.188357 178.833641 241.783861 190.068664 239.450521 194.925806 236.960395 199.985714 237.126403 205.377419" stroke="#111840" stroke-width="3" stroke-linecap="round" transform="translate(218 236)"/><path d="M194.628252 86.3359447C196.399008 87.7460829 197.524176 89.856682 198.086761 92.0502304 198.649345 94.2437788 198.695458 96.5387097 198.630899 98.8059908M194.75737 95.2299539C195.716529 94.5479263 196.832475 94.0870968 197.994534 93.902765" stroke="#111840" stroke-width="2" stroke-linecap="round" transform="translate(218 236)"/><path d="M210.334492 87.7645161C209.771908 88.3082949 211.11842 88.6585253 211.745563 89.137788 213.885227 90.8059908 216.200122 92.5387097 218.911592 92.7599078 221.042034 92.9258065 223.163252 92.1331797 225.284471 92.3543779 227.009113 92.5294931 228.586193 93.3589862 230.227832 93.9304147 231.094765 94.2253456 232.026256 94.4557604 232.93008 94.2806452 233.833903 94.10553 234.691613 93.4235023 234.820731 92.5110599 234.940626 91.7276498 234.497937 90.9534562 233.981466 90.3451613 231.408336 87.2668203 226.889218 86.4373272 222.95113 87.2207373 221.23571 87.5617512 219.437286 88.1516129 217.786424 87.5801843 216.624366 87.1746544 215.711319 86.2437788 214.540038 85.8935484 212.93529 85.4142857 211.044639 86.2529954 210.334492 87.7645161L210.334492 87.7645161zM244.753567 95.8935484C243.877412 95.2207373 243.822076 93.8198157 244.430773 92.9073733 245.048693 91.9949309 246.164639 91.5156682 247.262139 91.3774194 248.359639 91.2299539 249.494029 91.3774194 250.517748 91.8013825 251.707475 92.2806452 252.712748 93.1101382 253.801025 93.7921659 255.525668 94.8797235 257.508546 95.6170507 259.546761 95.6815668 260.007895 95.7 260.469029 95.6815668 260.930164 95.6815668 261.667979 95.6723502 262.405794 95.7092166 263.088273 95.9672811 264.204218 96.3820276 265.098819 97.7368664 264.499345 98.7691244 264.287223 99.1285714 263.936761 99.3774194 263.586298 99.5894009 261.778651 100.695392 259.592874 101.091705 257.490101 100.805991 255.959134 100.603226 254.474282 100.041014 253.229218 99.1101382 251.96571 98.1608295 250.86821 96.8428571 249.318798 96.5202765 248.497979 96.3543779 247.658714 96.4926267 246.81945 96.4741935 246.109303 96.4465438 245.334597 96.2806452 244.827349 95.8013825 244.744345 95.7184332 244.670563 95.6262673 244.606004 95.5341014M220.663903 98.0410138C223.6705 96.7599078 227.313462 97.1101382 230.01571 98.9442396M245.334597 102.713825C245.611277 102.557143 245.887958 102.409677 246.173861 102.280645 247.400479 101.72765 248.829996 101.635484 250.11195 102.022581 251.403126 102.418894 252.537517 103.276037 253.256887 104.418894" stroke="#111840" stroke-width="3" stroke-linecap="round" transform="translate(218 236)"/><path d="M210.057811 106.059447C210.380605 108.695392 211.819345 111.183871 213.940563 112.787558M217.389849 64.0410138C218.358231 64.6677419 219.105269 65.5894009 219.750857 66.5571429 221.650731 69.3958525 222.868126 72.6861751 223.264702 76.0870968M236.379366 78.6032258C239.828651 79.2391705 243.28716 79.8751152 246.745668 80.5110599M239.598084 74.262212C241.405731 74.5387097 243.18571 74.9995392 244.910353 75.6354839" stroke="#111840" stroke-width="2" stroke-linecap="round" transform="translate(218 236)"/><path d="M139.624134 102.437327C139.983819 101.994931 140.371172 101.580184 140.758525 101.165438 143.054975 98.6861751 145.351424 96.1976959 147.647874 93.7184332 149.28029 91.9580645 151.004933 90.1331797 153.255269 89.2852535 156.806004 87.9488479 160.73487 89.340553 164.26716 90.7230415 165.696676 91.2852535 167.181529 92.8152074 167.983903 94.1147465 168.7955 95.4235023 169.939113 97.497235 166.84029 99.3221198M130.133987 164.354378C130.539786 163.506452 131.019366 162.557143 131.545059 161.524885 132.172202 160.299078 132.863903 158.971889 133.601718 157.580184 136.571424 151.976498 140.140605 145.451152 142.095815 141.358986 143.838903 137.718433 145.628105 133.838249 145.203861 129.819816 145.019408 128.013364 144.383042 126.280645 143.755899 124.575576 142.151151 120.197696 140.546403 115.819816 138.941655 111.441935 138.213063 109.460369 137.475248 107.312903 138.028609 105.26682 138.314513 104.206912 138.913987 103.29447 139.624134 102.446544" stroke="#111840" stroke-width="3" stroke-linecap="round" transform="translate(218 236)"/><path d="M146.522706,103.736866 C149.114282,101.257604 151.71508,98.778341 154.315878,96.2990783 C154.915353,95.7276498 155.533273,95.1470046 156.307979,94.8428571 C158.134071,94.1331797 160.126172,95.183871 161.804702,96.1976959 C163.095878,96.981106 164.377832,97.7645161 165.669008,98.5479263 C166.065584,98.7875576 166.471382,99.0364055 166.84029,99.3221198 C167.172307,99.5709677 167.485878,99.8474654 167.734891,100.179263 C167.947013,100.464977 168.168357,100.86129 168.334366,101.331336 C168.841613,102.732258 168.93384,104.796774 167.421319,106.612442" stroke="#111840" stroke-width="3" stroke-linecap="round" transform="translate(218 236)"/><path d="M151.604408 111.32212C152.904807 109.829032 154.251319 108.382028 155.643945 106.971889 156.520101 106.087097 157.44237 105.193088 158.585983 104.676959 161.463462 103.377419 164.838966 104.796774 167.421319 106.612442 168.103798 107.100922 168.786277 107.635484 169.155185 108.382028 169.846887 109.792166 169.228966 111.460369 168.620269 112.898157 167.790227 114.842857 166.960185 116.787558 166.130143 118.732258 165.936466 119.183871 165.733567 119.653917 165.36466 119.976498 165.014197 120.280645 164.553063 120.409677 164.101151 120.501843 162.717748 120.778341 161.048441 120.575576 160.264513 119.405069 159.489807 118.234562 159.932496 116.658525 160.522748 115.377419 161.103777 114.10553 161.804702 112.88894 162.607076 111.746083M139.624134 102.446544L139.624134 102.437327C141.579345 97.8843318 138.941655 90.0870968 139.670248 85.1746544 139.956151 83.2299539 140.933756 81.4695853 141.892916 79.7460829 142.69529 78.3082949 143.497664 76.8705069 144.300038 75.4327189 144.807286 74.5294931 145.425206 73.543318 146.448924 73.3129032 147.721655 73.0271889 148.994387 74.1516129 149.307958 75.4050691 149.630752 76.6493088 149.243399 77.9488479 148.819155 79.1562212 148.109008 81.1654378 147.260521 83.1285714 146.282916 85.0179724 146.052349 85.4695853 145.812559 85.9304147 145.766445 86.4373272 145.729555 86.8981567 145.858672 87.3589862 145.997013 87.8013825 146.670269 90.0963134 146.974618 91.4235023 147.647874 93.7184332M131.498945 161.497235C129.350059 160.999539 127.155059 162.354378 125.808546 164.096313 124.010122 166.437327 123.309197 169.451152 123.124744 172.400461 122.635941 180.225346 125.421193 187.856682 128.510794 195.054839 130.659681 200.068664 133.048357 205.119355 136.921887 208.962673 138.581971 210.612442 140.629408 212.059447 142.962748 212.216129 144.595164 212.317512 146.218357 211.773733 147.610983 210.925806 150.359345 209.26682 152.268441 206.53871 153.993084 203.819816 157.553042 198.225346 160.725647 192.262212 162.201277 185.792166 162.505626 184.464977 162.726971 183.119355 162.865311 181.764516 163.40945 176.474194 162.653189 171.045622 160.098504 166.428111" stroke="#111840" stroke-width="3" stroke-linecap="round" transform="translate(218 236)"/><path d="M132.661004,158.142396 C132.458105,158.13318 132.264429,158.13318 132.061529,158.13318 C125.485752,158.13318 119.54634,163.082488 116.825647,169.110138 C115.423798,172.206912 114.732097,175.515668 114.483084,178.907373 C114.224849,182.326728 114.418525,185.819816 114.815101,189.220737 C116.447517,203.276037 121.400101,217.239171 130.770353,227.847465 C132.504218,229.810599 134.53321,231.72765 137.097118,232.262212 C139.273672,232.713825 141.551676,232.07788 143.543777,231.082488 C150.211782,227.746083 154.159092,220.833641 157.728273,214.299078 C160.061613,210.022581 162.422622,205.67235 163.54779,200.94424 C163.612349,200.676959 163.676908,200.400461 163.732244,200.123963 C164.977307,194.096313 164.045815,187.865899 163.105101,181.792166" stroke="#111840" stroke-width="3" stroke-linecap="round" transform="translate(218 236)"/><path d="M114.473861 178.907373C114.114176 182.068664 111.790059 184.686175 110.434324 187.570968 106.182664 196.630876 103.461971 206.308295 100.7505 215.939631 100.104912 218.243779 99.4501008 220.557143 99.237979 222.94424 98.9797437 225.884332 99.3947647 228.852074 100.012685 231.746083 100.086466 232.059447 100.151025 232.363594 100.224807 232.667742 101.921782 240.068664 104.688588 247.229954 108.479113 253.819816 110.443546 257.239171 112.703105 260.529493 115.663588 263.137788 117.969261 265.174654 120.754513 266.769124 123.733441 267.469585 124.563483 267.67235 125.402748 267.801382 126.260458 267.847465 127.763756 267.939631 129.294723 267.782949 130.678126 267.202304 131.628063 266.805991 132.448882 266.243779 133.19592 265.561751 134.957454 263.994931 136.313189 261.847465 137.834933 259.994931 141.228882 255.838249 145.794113 252.842857 149.916655 249.405069 152.047097 247.626267 154.066866 245.718433 155.948294 243.690783 158.53987 240.935023 160.900878 237.976498 162.985206 234.833641 164.829744 232.07788 166.49905 229.110138 167.033966 225.838249 167.522769 222.833641 167.024744 219.773733 166.535941 216.778341 165.705899 211.746083 164.516172 206.013364 163.695353 200.981106M4.5947437 134.879724C7.93335714 136.400461 10.9122857 138.686175 13.2364034 141.515668 14.0203319 142.464977 14.7397017 143.488018 15.7449748 144.188479 16.9162563 145.008756 18.3642185 145.32212 19.7660672 145.607834 22.1270756 146.096313 24.4788613 146.584793 26.8306471 147.073272 28.6936303 147.460369 30.5842815 147.856682 32.4841555 147.782949 36.1640084 147.635484 39.6778529 145.773733 43.3484832 146.087097 48.9189874 146.566359 52.7464034 151.718433 55.8083361 156.400461 59.5250798 162.059447 63.2418235 167.72765 66.9493445 173.386636 67.1891345 173.7553 67.4289244 174.123963 67.6687143 174.492627 69.070563 176.630876 70.5923067 178.870507 72.9164244 179.930415 77.2418655 181.911982 82.2221176 178.971889 85.5976218 175.617051 89.2959202 171.948848 93.0864454 166.345161 91.407916 161.414286 90.5963193 160.741475 89.7109412 159.985714 88.7702269 159.165438 79.3077479 150.898157 64.0903109 135.847465 61.1390504 131.994931 56.6660462 126.142396 61.1390504 123.856682 51.3998908 119.073272M91.8137143 159.598618C90.9191134 159.174654 89.9599538 158.94424 88.9362353 158.981106" stroke="#111840" stroke-width="3" stroke-linecap="round" transform="translate(218 236)"/><path d="M66.6726639 197.460369C67.4934832 198.603226 68.4803109 199.635484 69.5778109 200.520276 73.5527899 203.72765 79.0033992 205.036406 84.0020966 203.985714 89.0100168 202.935023 93.4645756 199.534101 95.8071387 194.999539 96.9691975 192.741475 97.6147857 190.262212 98.1497017 187.792166 99.7175588 180.409677 100.215584 172.45576 97.1352059 165.570968 96.0377059 163.110138 94.1839454 160.695392 91.8321597 159.598618M66.3314244 173.792166C65.9256261 175.948848 65.5198277 178.114747 65.1048067 180.280645 64.1917605 185.156221 63.2971597 190.382028 65.2523697 194.953456 65.5290504 195.598618 65.8518445 196.216129 66.2299748 196.805991 66.3683151 197.027189 66.5158782 197.239171 66.6726639 197.451152M202.818 124.326728C196.408231 125.165438 190.98529 130.86129 190.468819 137.29447 190.459597 137.460369 190.441151 137.635484 190.431929 137.801382 190.247475 142.299078 192.193462 146.723041 195.03405 150.252995 197.976088 153.902765 201.82195 156.713825 205.695479 159.358986 208.047265 160.962673 210.592727 162.566359 213.433315 162.686175" stroke="#111840" stroke-width="3" stroke-linecap="round" transform="translate(218 236)"/><path d="M65.5013824 196.022581C65.778063 196.252995 66.0270756 196.520276 66.2299748 196.805991 66.3959832 197.008756 66.5435462 197.229954 66.6726639 197.451152L66.6726639 197.460369C67.1891345 198.363594 67.5303739 199.405069 67.8623908 200.400461 70.2971807 207.801382 73.7464664 214.981106 78.9296176 220.805991 84.1035462 226.630876 91.1589034 231.017972 98.8875168 232.004147M91.8137143 159.598618L91.8321597 159.598618C95.4751218 160.566359 98.8045126 160.354378 102.447475 161.32212 104.642475 161.911982 106.85592 162.501843 108.875689 163.534101 110.904681 164.566359 115.820374 167.073272 116.825647 169.110138M161.454239 145.782949C162.763861 145.017972 164.064261 144.252995 165.373882 143.488018 169.284303 141.193088 173.240836 138.879724 177.603168 137.653917 181.9655 136.418894 186.438504 135.663134 190.431929 137.801382L190.441151 137.801382M4.03215966 134.649309C2.85165546 134.299078 2.82398739 132.446544 3.7462563 131.626267 4.65930252 130.805991 6.00581513 130.732258 7.24165546 130.704608 7.72123529 130.695392 8.21003782 130.686175 8.68961765 130.704608 9.80556303 130.713825 10.903063 130.796774 11.9452269 131.165438 13.7067605 131.782949 15.1362773 133.110138 16.3721176 134.51106 16.777916 134.971889 17.192937 135.460369 17.7647437 135.681567 18.2074328 135.856682 18.6962353 135.847465 19.1665924 135.838249 21.7212773 135.792166 24.2759622 135.736866 26.8306471 135.690783 27.6606891 135.67235 28.4999538 135.653917 29.293105 135.423502 30.4551639 135.091705 31.4327689 134.326728 32.4103739 133.617051 35.3524118 131.488018 38.8385882 127.552535 40.2773277 124.999539M51.3998908 119.073272C49.1403319 118.317512 47.0283361 117.110138 45.2391345 115.524885 44.9532311 115.276037 44.6765504 115.008756 44.3353109 114.842857 43.7266134 114.53871 42.998021 114.575576 42.3247647 114.713825 41.5869496 114.879724 40.803021 115.229954 40.5171176 115.930415 40.2773277 116.501843 40.4433361 117.156221 40.655458 117.736866 40.9690294 118.575576 41.3932731 119.368203 41.9097437 120.087097" stroke="#111840" stroke-width="3" stroke-linecap="round" transform="translate(218 236)"/><path d="M8.69884034,130.114747 C7.01108824,128.151613 4.91753782,126.547926 2.58419748,125.432719 C1.60659244,124.971889 0.407642857,124.326728 0.462978992,123.248387 C0.499869748,122.686175 0.905668067,122.197696 1.3852479,121.884332 C2.71331513,121.017972 4.47484874,121.29447 6.00581513,121.718433 C8.20081513,122.326728 10.3681471,123.202304 12.1389034,124.640092 C12.8213824,125.193088 13.4393025,125.829032 14.1310042,126.372811 C17.2851639,128.833641 24.3128529,127.829032 27.3471176,127.340553" stroke="#111840" stroke-width="3" stroke-linecap="round" transform="translate(218 236)"/><path d="M12.1389034 124.640092C9.69489076 121.681567 7.90568908 120.308295 5.46167647 117.34977 4.94520588 116.723041 3.26667647 115.395853 3.09144538 114.612442 2.92543697 113.819816 4.5947437 111.792166 5.34178151 111.497235 5.92281092 111.276037 6.56839916 111.488018 7.13098319 111.736866 12.1850168 113.985714 15.4867395 119.395853 20.7897857 120.94424 22.3207521 121.386636 23.9347227 121.478802 25.5210252 121.570968 27.5869076 121.690783 39.853084 119.976498 41.9097437 120.087097M427.925395 134.879724C424.596004 136.400461 421.607853 138.686175 419.283735 141.515668 418.509029 142.464977 417.780437 143.488018 416.784387 144.188479 415.603882 145.008756 414.15592 145.32212 412.754071 145.607834 410.402286 146.096313 408.041277 146.584793 405.689492 147.073272 403.826508 147.460369 401.935857 147.856682 400.035983 147.782949 396.365353 147.635484 392.842286 145.773733 389.180878 146.087097 383.601151 146.566359 379.773735 151.718433 376.711803 156.400461 372.995059 162.059447 369.287538 167.72765 365.570794 173.386636 365.331004 173.7553 365.091214 174.123963 364.851424 174.492627 363.449576 176.630876 361.927832 178.870507 359.603714 179.930415 355.278273 181.911982 350.298021 178.971889 346.922517 175.617051 343.233441 171.948848 339.433693 166.345161 341.121445 161.414286 341.933042 160.741475 342.81842 159.985714 343.759134 159.165438 353.221613 150.898157 368.429828 135.847465 371.381088 131.994931 375.854092 126.142396 371.381088 123.856682 381.120248 119.073272" stroke="#111840" stroke-width="3" stroke-linecap="round" transform="translate(218 236)"/><path d="M366.188714 173.792166C366.603735 175.948848 367.009534 178.114747 367.415332 180.280645 368.30071 184.962673 369.149197 189.967281 367.479891 194.409677 367.415332 194.594009 367.34155 194.769124 367.267769 194.953456 366.336277 197.137788 364.786866 199.027189 362.942328 200.520276 358.967349 203.72765 353.516739 205.036406 348.518042 203.985714 343.519345 202.935023 339.055563 199.534101 336.722223 194.999539 335.560164 192.741475 334.905353 190.262212 334.37966 187.792166 332.80258 180.409677 332.313777 172.45576 335.394155 165.570968 336.039744 164.142396 336.934345 162.723041 338.031845 161.570968 339.544366 159.985714 341.435017 158.907373 343.593126 158.981106M428.487979 134.649309C429.677706 134.299078 429.696151 132.446544 428.783105 131.626267 427.860836 130.805991 426.514324 130.732258 425.287706 130.704608 424.808126 130.695392 424.319324 130.686175 423.830521 130.704608 422.723798 130.713825 421.626298 130.796774 420.584134 131.165438 418.813378 131.782949 417.393084 133.110138 416.148021 134.51106 415.742223 134.971889 415.327202 135.460369 414.755395 135.681567 414.312706 135.856682 413.823903 135.847465 413.353546 135.838249 410.798861 135.792166 408.244176 135.736866 405.689492 135.690783 404.85945 135.67235 404.029408 135.653917 403.236256 135.423502 402.074197 135.091705 401.08737 134.326728 400.109765 133.617051 397.167727 131.488018 393.690773 127.552535 392.252034 124.999539M381.120248 119.073272C383.389029 118.317512 385.501025 117.110138 387.290227 115.524885 387.566908 115.276037 387.852811 115.008756 388.184828 114.842857 388.802748 114.53871 389.522118 114.575576 390.195374 114.713825 390.933189 114.879724 391.717118 115.229954 392.003021 115.930415 392.242811 116.501843 392.086025 117.156221 391.864681 117.736866 391.560332 118.575576 391.136088 119.368203 390.610395 120.087097" stroke="#111840" stroke-width="3" stroke-linecap="round" transform="translate(218 236)"/><path d="M423.821298,130.114747 C425.50905,128.151613 427.611824,126.547926 429.945164,125.432719 C430.922769,124.971889 432.112496,124.326728 432.05716,123.248387 C432.029492,122.686175 431.614471,122.197696 431.144113,121.884332 C429.806824,121.017972 428.04529,121.29447 426.514324,121.718433 C424.319324,122.326728 422.151992,123.202304 420.390458,124.640092 C419.707979,125.193088 419.090059,125.829032 418.398357,126.372811 C415.234975,128.833641 408.216508,127.829032 405.182244,127.340553" stroke="#111840" stroke-width="3" stroke-linecap="round" transform="translate(218 236)"/><path d="M420.390458 124.640092C422.834471 121.681567 424.623672 120.308295 427.067685 117.34977 427.574933 116.723041 429.253462 115.395853 429.428693 114.612442 429.603924 113.819816 427.925395 111.792166 427.178357 111.497235 426.60655 111.276037 425.951739 111.488018 425.389155 111.736866 420.344345 113.985714 417.033399 119.395853 411.730353 120.94424 410.199387 121.386636 408.594639 121.478802 406.999113 121.570968 404.942454 121.690783 392.667055 119.976498 390.610395 120.087097M156.335647 244.05023C157.792832 248.07788 161.35279 251.26682 165.521445 252.262212 165.88113 252.345161 166.240815 252.418894 166.6005 252.464977 169.339639 252.879724 172.207895 252.363594 174.66113 251.073272 175.666403 250.547926 176.597895 249.893548 177.427937 249.119355 181.329134 245.469585 182.592643 239.847465 183.173672 234.53871 184.925983 218.676959 182.34363 202.667742 178.931235 187.082488 177.391046 180.031797 175.666403 172.815207 176.754681 165.690783M208.213273 192.48341C201.665164 203.423502 202.57821 206.815207 200.152643 217.478802 197.736298 228.068664 194.111782 233.67235 191.70466 244.262212 191.427979 245.451152 191.160521 246.667742 191.326529 247.875115 191.547874 249.432719 192.433252 250.704608 193.604534 251.764516 194.785038 252.824424 196.260668 253.67235 197.653294 254.418894 200.770563 256.087097 203.943168 257.773733 207.401676 258.529493 210.850962 259.285253 214.687601 259.008756 217.583525 256.981106 218.865479 256.087097 219.870752 254.925806 220.682349 253.607834 221.761403 251.865899 222.480773 249.847465 222.988021 247.856682 226.077622 235.67235 223.080248 234.243779 225.155353 223.395853M249.613924 197.543318C245.970962 207.7 246.358315 225.460369 246.302979 231.276037 246.256866 235.451152 245.823399 239.709217 246.930122 243.736866 247.667937 246.428111 249.125122 248.91659 251.071109 250.925806 252.574408 252.48341 254.382055 253.764516 256.383378 254.630876 260.948609 256.612442 269.405815 257.193088 273.805038 254.88894M174.854807 251.220737C174.799471 251.202304 174.76258 251.211521 174.734912 251.220737 174.559681 251.303687 174.734912 251.810599 175.030038 251.939631 180.508315 254.446544 187.07487 255.856682 192.442475 253.119355M220.931361 253.764516C225.828609 253.948848 230.661298 255.017972 235.558546 255.29447 240.455794 255.561751 245.638945 254.935023 249.613924 252.068664M253.561235 138.741475C255.285878 140.041014 257.102748 141.183871 258.984176 142.234562 263.595521 144.824424 268.538882 146.91659 273.113336 149.607834 285.471739 156.88894 295.044891 168.787558 299.517895 182.409677 301.307097 187.875115 302.303147 193.580184 304.378252 198.935023 308.344008 209.128571 315.96195 217.423502 321.58779 226.805991 323.635227 230.225346 325.461319 233.911982 325.793336 237.875115 326.134576 241.847465 324.723504 246.170046 321.421782 248.400461" stroke="#111840" stroke-width="3" stroke-linecap="round" transform="translate(218 236)"/><path d="M259.094849 142.05023C263.245059 143.29447 267.524387 144.07788 271.646929 145.414286 290.710227 151.607834 305.309744 173.681567 314.652328 176.649309M338.031845 161.570968C334.693231 163.358986 331.612853 165.838249 329.012055 168.759908 324.769618 173.543318 321.790689 179.524885 321.043651 185.67235 319.844702 195.570968 322.897412 205.72765 328.449471 214.013364 330.211004 216.640092 332.258441 219.137788 334.905353 220.870507 336.685332 222.041014 338.658987 222.778341 340.706424 223.137788 346.913294 224.225346 353.848756 221.819816 358.441655 217.29447 364.427181 211.405069 366.991088 202.805991 367.479891 194.409677 367.498336 194.225346 367.507559 194.031797 367.516782 193.847465" stroke="#111840" stroke-width="3" stroke-linecap="round" transform="translate(218 236)"/><path d="M329.722202 168.382028C329.519303 168.51106 329.279513 168.630876 329.012055 168.759908 327.31508 169.570968 324.520605 170.382028 323.229429 171.193088 321.228105 172.446544 319.208336 173.709217 317.548252 175.395853 316.994891 175.958065 316.487643 176.566359 316.035731 177.202304 314.04363 179.967281 312.918462 183.340553 312.420437 186.732258 311.811739 190.907373 312.08842 195.156221 312.365101 199.368203M321.58779 226.805991C328.532475 228.796774 336.565437 227.561751 340.706424 223.137788M270.189744 168.206912C268.18842 176.575576 267.146256 185.165438 267.09092 193.764516 267.063252 197.312903 267.210815 200.870507 267.884071 204.345161 269.230584 211.239171 272.652202 217.736866 272.827433 224.759908M283.083063 207.709217C281.256971 210.815207 279.430878 213.930415 277.604786 217.036406 274.625857 222.13318 271.545479 227.497235 271.361025 233.395853 271.10279 241.202304 276.156824 247.441935 273.805038 254.88894M295.589029 238.999539C287.417727 240.990323 280.011908 246.004147 275.133105 252.852074 274.662748 253.506452 274.220059 254.188479 273.805038 254.88894 272.57842 256.981106 271.665374 259.248387 271.471697 261.653917 271.453252 261.939631 271.434807 262.225346 271.434807 262.51106 271.416361 263.709217 271.554702 264.91659 271.757601 266.10553 272.320185 269.377419 273.399239 272.621659 275.35445 275.303687 277.300437 277.976498 280.205584 280.059447 283.479639 280.557143L283.507307 280.557143M310.289996 285.100922C313.508714 285.432719 316.81966 285.414286 319.927706 284.492627 323.035752 283.580184 325.940899 281.681567 327.610206 278.898157 327.960668 278.317512 328.246571 277.709217 328.486361 277.073272 329.417853 274.594009 329.528525 271.801382 329.307181 269.128571 328.707706 261.718433 325.701109 254.520276 320.840752 248.88894 320.785416 248.815207 320.720857 248.741475 320.656298 248.667742 318.267622 245.948848 315.270248 243.497235 311.682622 242.94424M281.450647 322.501843C278.185815 322.354378 277.060647 319.183871 276.96842 317.027189 276.885416 314.870507 277.577118 312.769124 277.992139 310.658525 278.259597 309.276037 278.416382 307.875115 278.886739 306.547926 279.366319 305.229954 280.205584 303.967281 281.469092 303.358986 281.754996 303.220737 282.059345 303.128571 282.382139 303.073272 283.461193 302.88894 284.641697 303.229954 285.26884 304.114747 285.794534 304.879724 285.859092 305.856682 285.886761 306.778341 285.969765 309.368203 285.951319 311.948848 285.822202 314.529493 285.74842 315.939631 285.646971 317.34977 285.517853 318.750691 285.397958 320.041014 285.158168 321.488018 284.097559 322.225346 283.359744 322.732258 282.345248 322.492627 281.450647 322.501843M290.396655 329.856682C288.976361 329.617051 288.367664 329.183871 287.832748 328.391244 287.307055 327.598618 287.297832 326.575576 287.307055 325.617051 287.334723 322.45576 287.362391 319.285253 287.390059 316.114747 287.390059 315.626267 287.399282 315.119355 287.445395 314.621659 287.500731 314.13318 287.592958 313.6447 287.777412 313.183871 288.330773 311.773733 289.723399 310.723041 291.23592 310.603226 291.946067 310.53871 292.693105 310.676959 293.274134 311.091705 294.15029 311.718433 294.500752 312.842857 294.657538 313.902765 295.14634 317.303687 294.122622 320.787558 294.574534 324.197696 294.666761 324.88894 294.814324 325.617051 294.814324 326.308295 294.814324 326.833641 294.731319 327.340553 294.482307 327.801382 293.633819 329.358986 292.167412 329.967281 290.396655 329.856682M302.524492 332.852074C302.386151 332.925806 302.247811 332.990323 302.109471 333.045622 301.528441 333.29447 300.901298 333.395853 300.264933 333.312903 300.172706 333.303687 300.089702 333.285253 299.997475 333.26682" stroke="#111840" stroke-width="3" stroke-linecap="round" transform="translate(218 236)"/><path d="M302.561382,332.833641 C302.55216,332.842857 302.542937,332.842857 302.524492,332.852074 C302.395374,332.925806 302.257034,332.990323 302.109471,333.045622 C301.556109,333.257604 300.901298,333.358986 300.264933,333.312903 C299.324218,333.257604 298.429618,332.898157 297.931592,332.206912 C297.184555,331.165438 297.138441,329.792166 297.110773,328.501843 C297.10155,327.764516 297.083105,327.017972 297.073882,326.271429 C297.036992,324.308295 297.000101,322.345161 296.96321,320.382028 C296.935542,318.667742 296.926319,316.86129 297.737916,315.358986 C298.549513,313.847465 300.4955,312.796774 302.035689,313.561751 C303.299197,314.188479 303.797223,315.718433 304.110794,317.100922 C304.682601,319.598618 305.088399,322.13318 305.309744,324.686175 C305.337412,324.999539 305.36508,325.303687 305.383525,325.617051 C305.484975,327.285253 305.420416,328.990323 304.719492,330.492627 C304.26758,331.460369 303.483651,332.317512 302.561382,332.833641" stroke="#111840" stroke-width="3" stroke-linecap="round" transform="translate(218 236)"/><path d="M305.383525 325.617051C305.761655 325.073272 307.228063 324.88894 307.864429 325.073272 308.491571 325.257604 309.017265 325.690783 309.524513 326.114747 311.221487 327.497235 313.066025 328.842857 315.224134 329.174654 317.382244 329.515668 319.900038 328.492627 320.564071 326.409677 320.979092 325.082488 320.573294 323.617051 319.946151 322.372811 319.309786 321.128571 318.452076 319.994931 317.889492 318.713825 317.041004 316.778341 316.598315 314.234562 314.596992 313.561751 314.015962 313.368203 313.398042 313.386636 312.826235 313.580184 312.023861 313.838249 311.304492 314.418894 310.880248 315.156221 310.142433 316.418894 310.151655 318.004147 310.575899 319.405069 310.99092 320.796774 311.784071 322.05023 312.568 323.285253M312.770899 313.432719C311.922412 311.709217 311.322937 308.529493 312.457328 306.981106 314.163525 304.649309 317.760374 305.488018 320.508735 306.391244 323.06342 307.229954 325.950122 307.902765 328.348021 306.695392 330.74592 305.488018 331.723525 301.580184 329.445521 300.160829 328.209681 299.395853 326.623378 299.653917 325.175416 299.709217 320.674744 299.875115 316.432307 297.838249 312.263651 296.151613 311.000143 295.6447 309.699744 295.165438 308.380899 294.778341 305.309744 293.884332 302.137139 293.515668 299.15821 294.529493 296.96321 295.26682 295.044891 296.723041 292.785332 297.239171 290.571887 297.7553 288.229324 297.312903 286.015878 297.810599 285.656193 297.893548 285.287286 298.013364 284.936824 298.179263 283.147622 298.999539 281.708882 300.769124 282.299134 302.575576" stroke="#111840" stroke-width="3" stroke-linecap="round" transform="translate(218 236)"/><path d="M284.448021 297.432719C283.747097 290.197696 283.608756 286.594009 283.479639 280.557143 283.461193 279.331336 283.433525 278.004147 283.405857 276.529493 283.359744 274.354378 283.359744 272.07788 284.355794 270.142396 285.739197 267.451152 288.755017 265.994931 291.706277 265.312903 295.321571 264.474194 299.213546 264.53871 302.644387 265.939631 306.075227 267.34977 308.989597 270.197696 310.040983 273.746083 311.110815 277.358986 310.23466 281.147005 309.293945 284.852074 309.081824 285.690783 308.869702 286.520276 308.676025 287.340553 307.615416 291.829032 307.615416 291.829032 308.380899 294.778341M236.573042 120.566359C237.024954 121.67235 236.683714 122.925806 235.98279 123.930415 235.743 124.271429 235.466319 124.584793 235.161971 124.852074 233.963021 125.911982 232.422832 126.492627 231.011761 127.248387 230.522958 127.506452 230.061824 127.782949 229.619134 128.087097 224.90634 131.202304 222.43466 136.409677 221.005143 142.05023 219.437286 148.225346 221.447832 153.100922 222.702118 159.34977" stroke="#111840" stroke-width="3" stroke-linecap="round" transform="translate(218 236)"/><path d="M235.98279,123.930415 C236.001235,126.225346 237.578315,127.976498 239.13695,129.653917 C239.321403,129.856682 239.505857,130.05023 239.671866,130.262212 C245.869513,137.377419 247.972286,147.875115 244.919576,156.805991" stroke="#111840" stroke-width="3" stroke-linecap="round" transform="translate(218 236)"/><path d="M229.905038 128.51106C231.205437 129.764516 232.598063 131.008756 234.313483 131.598618 236.019681 132.179263 238.131676 131.948848 239.312181 130.584793M123.69655 267.626267C115.368462 268.796774 107.971866 274.13318 103.176067 281.036406 98.3802689 287.939631 96.0100378 296.289862 95.143105 304.649309 93.5199118 320.492627 97.9006891 337.893548 110.295983 347.893548 120.468609 356.096313 134.265752 358.13318 147.334303 358.252995 160.402853 358.382028 173.618966 356.925806 186.45695 359.414286 192.848273 360.649309 199.138147 362.870507 205.658588 362.879724 212.898399 362.88894 219.695521 360.206912 226.10529 356.640092 229.25945 354.879724 232.321382 352.907373 235.291088 350.925806 238.251571 348.962673 241.33195 346.815207 242.816803 343.580184 244.486109 339.948848 243.757517 335.976498 242.106655 332.225346 241.12905 329.994931 239.828651 327.847465 238.500584 325.884332 235.650773 321.67235 232.432055 317.386636 227.783819 315.32212 224.076298 313.681567 219.879975 313.6447 215.932664 312.695392 212.483378 311.865899 209.246214 310.354378 205.962937 309.008756 204.883882 308.575576 203.795605 308.151613 202.698105 307.782949 198.584786 306.391244 194.250122 305.7 189.915458 305.709217 186.189492 305.709217 182.454303 306.234562 178.875899 307.276037" stroke="#111840" stroke-width="3" stroke-linecap="round" transform="translate(218 236)"/><path d="M193.586088 319.340553C188.559723 318.833641 183.837706 315.893548 181.163126 311.617051 179.788945 309.432719 178.903567 306.88894 177.049807 305.091705 176.035311 304.10553 174.790248 303.405069 173.56363 302.704608 169.468756 300.400461 165.309324 298.068664 160.753315 296.91659 155.86529 295.690783 150.488462 295.801382 146.163021 293.211521M133.19592 265.561751C144.143252 264.501843 154.684786 264.059447 165.253987 264.225346 174.246109 264.363594 183.256676 264.935023 192.553147 265.939631 199.608504 266.704608 206.673084 267.718433 213.765332 267.534101 233.280542 267.017972 252.002601 257.248387 270.807664 262.501843M226.179071 356.759908C230.532181 357.32212 234.876067 357.875115 239.219954 358.428111 241.341172 358.704608 243.471613 358.981106 245.51905 359.617051 247.114576 360.114747 248.663987 360.842857 250.333294 361.082488 252.906424 361.460369 255.516445 360.640092 258.117244 360.787558 262.885374 361.045622 266.841908 364.400461 271.296466 366.087097 277.466445 368.428111 284.355794 367.488018 290.839345 368.667742 293.043567 369.064055 295.238567 369.718433 297.479681 369.67235 299.720794 369.635484 302.118693 368.741475 303.225416 366.796774M295.293903 364.769124C297.10155 364.391244 298.78008 365.746083 300.587727 366.170046 301.399324 366.363594 302.247811 366.326728 303.050185 366.114747 304.673378 365.709217 306.12134 364.557143 306.766929 363.017972M296.465185 359.930415C299.803798 358.713825 303.253084 362.179263 306.730038 361.911982 306.932937 361.902765 307.145059 361.875115 307.347958 361.829032 308.878924 361.506452 310.123987 360.400461 311.120038 359.202304M299.730017 355.248387C301.777454 354.870507 303.935563 355.027189 305.909218 355.718433 307.098945 356.123963 308.214891 356.723041 309.41384 357.100922 309.985647 357.285253 310.603567 357.414286 311.212265 357.441935 311.857853 357.469585 312.503441 357.386636 313.093693 357.137788 314.255752 356.649309 315.14113 355.377419 314.873672 354.151613 314.670773 353.229954 313.942181 352.612442 313.075248 352.170046 312.521887 351.893548 311.903966 351.681567 311.33216 351.506452 309.625962 350.990323 307.910542 350.48341 306.204345 349.967281 305.715542 349.285253 306.287349 348.271429 307.062055 347.958065 307.845983 347.6447 308.712916 347.792166 309.552181 347.838249 311.147706 347.939631 312.761676 347.67235 314.228084 347.064055 315.436256 346.575576 316.635206 345.736866 316.958 344.474194 317.33613 342.999539 316.303189 341.451152 314.956676 340.713825 313.610164 339.985714 312.033084 339.884332 310.502118 339.801382 308.482349 339.681567 303.834113 338.179263 301.823567 338.059447M242.22655 332.170046C244.200206 333.72765 246.183084 335.395853 248.525647 336.299078 265.218714 342.769124 291.060689 336.308295 301.823567 338.059447M205.953714 309.017972C205.953714 309.017972 205.962937 309.017972 205.962937 309.008756 210.380605 306.529493 212.843063 304.805991 217.850983 303.939631 224.943231 302.713825 232.4505 303.165438 239.0355 300.271429 245.389933 297.478802 250.213399 291.847465 256.678504 289.32212 262.193672 287.165438 268.326761 287.488018 274.238504 287.847465M189.915458 305.709217C195.587412 304.621659 201.628273 298.004147 206.119723 294.372811 214.549261 287.570968 228.069723 290.225346 236.158021 283.027189" stroke="#111840" stroke-width="3" stroke-linecap="round" transform="translate(218 236)"/><path d="M313.075248 352.170046C315.8605 351.100922 316.229408 351.792166 318.581193 351.515668 321.550899 351.156221 324.363819 349.985714 327.102958 348.769124 331.677412 346.732258 336.178084 344.53871 340.595752 342.188479 345.474555 339.598618 350.528588 336.520276 352.871151 331.524885 354.51279 328.022581 354.595794 324.013364 354.641908 320.142396 354.688021 316.501843 354.724912 312.833641 354.070101 309.257604 351.561529 295.441935 339.645815 285.626267 328.486361 277.073272 328.421803 277.027189 328.366466 276.981106 328.301908 276.935023M165.253987 264.142396C166.416046 260.759908 166.821845 257.110138 166.434492 253.543318M168.7955 101.156221C169.376529 100.114747 171.045836 100.225346 171.885101 101.073272 172.715143 101.930415 172.94571 103.183871 173.139387 104.363594 173.462181 106.354378 173.784975 108.354378 174.107769 110.354378 174.227664 111.110138 174.356782 111.875115 174.255332 112.640092 174.163105 113.34977 173.877202 114.013364 173.591298 114.667742 172.484576 117.26682 171.377853 119.856682 170.261908 122.45576 169.717769 123.72765 169.164408 125.008756 168.362034 126.13318 167.421319 127.469585 166.157811 128.53871 165.097202 129.782949 161.445017 134.114747 160.707202 139.967281 160.476634 145.746083 160.430521 147.017972 160.412076 148.289862 160.384408 149.534101 160.282958 155.156221 160.0155 160.778341 159.591256 166.391244 159.342244 169.626267 159.047118 172.852074 158.696655 176.07788 158.493756 178.022581 158.244744 180.013364 157.387034 181.764516 155.874513 184.870507 152.720353 186.769124 149.732202 188.501843 148.56092 189.174654 147.371193 189.856682 146.052349 190.151613 143.31321 190.769124 140.408063 189.570968 138.360626 187.6447 136.313189 185.718433 134.985122 183.165438 133.850731 180.594009 131.572727 175.460369 129.857307 169.994931 129.691298 164.372811L129.691298 164.308295" stroke="#111840" stroke-width="3" stroke-linecap="round" transform="translate(218 236)"/><path d="M368.494387 144.031797C370.578714 142.437327 372.395584 140.492627 373.843546 138.308295M55.3564244 136.51106C56.9611723 138.280645 58.5751429 140.059447 60.1891134 141.838249M170.326466 288.999539C181.568924 286.713825 192.571592 283.340553 203.546592 279.967281 208.775857 278.363594 214.005122 276.759908 219.243609 275.156221M263.475626 300.86129C269.894618 296.363594 276.304387 293.967281 284.143672 294.13318" stroke="#111840" stroke-width="2" stroke-linecap="round" transform="translate(218 236)"/><path fill="#E4492F" d="M42.359 30.922L9.448 30.922 15.908 97.646 42.359 105.386 68.788 97.646 75.459 30.922" transform="translate(218 236)"/><path d="M16.9812763,96.8054378 L42.3381376,104.102212 L67.6728645,96.8054378 L74.1545704,31.9943779 L10.7522721,31.9943779 L16.9812763,96.8054378 Z M42.3584275,106.668111 L14.8351565,98.74 L7.95410819,29.8920737 L76.7424569,29.8920737 L69.8826208,98.74 L42.3584275,106.668111 Z" fill="#131741" transform="translate(218 236)"/><path fill="#E96D31" d="M64.054 93.798L69.651 35.864 42.549 35.864 42.549 99.581" transform="translate(218 236)"/><path fill="#EEEDEC" d="M52.228 79.204L42.549 83.073 33.1 80.066 33.1 73.632 24.262 73.401 25.335 86.06 42.337 91.632 59.719 86.48 61.887 61.141 31.164 61.141 30.301 52.582 62.539 52.582 62.981 44.191 21.505 44.191 23.883 69.3 52.249 69.3" transform="translate(218 236)"/><path fill="#E5A229" d="M299.063 225.054L266.152 225.054 272.613 291.779 299.063 299.518 325.493 291.779 332.164 225.054" transform="translate(218 236)"/><path d="M273.685788,290.937419 L299.04265,298.234194 L324.377377,290.937419 L330.859083,226.126359 L267.456784,226.126359 L273.685788,290.937419 Z M299.06294,300.800092 L271.539669,292.871982 L264.65862,224.024055 L333.446969,224.024055 L326.587133,292.871982 L299.06294,300.800092 Z" fill="#131741" transform="translate(218 236)"/><path fill="#F0BD1E" d="M320.758 287.93L326.356 229.996 299.253 229.996 299.253 293.713" transform="translate(218 236)"/><path fill="#EEEDEC" d="M295.853 285.452L278.973 278.606 277.888 266.018 284.467 267.174 285.066 274.114 289.397 275.871 289.397 244.563 281.909 244.563 281.208 238.111 295.853 238.111M302.463 285.452L302.463 268.603 308.919 268.603 308.919 275.871 313.251 274.114 314.279 262.194 302.463 262.156 302.463 238.111 323.075 238.111 322.474 244.563 308.919 244.563 308.919 255.726 321.313 255.765 319.344 278.606" transform="translate(218 236)"/><path fill="#0066A9" d="M403.461 30.225L369.961 30.225 376.756 97.847 403.461 105.69 430.167 97.847 436.962 30.225" transform="translate(218 236)"/><path d="M377.852465,97.0089401 L403.461105,104.421843 L429.070668,97.0089401 L435.650135,31.3425806 L371.294211,31.3425806 L377.852465,97.0089401 Z M403.461105,106.807097 L375.659309,98.7490323 L368.864954,29.1508756 L438.273068,29.1508756 L431.499925,98.7490323 L403.461105,106.807097 Z" fill="#111840" transform="translate(218 236)"/><path fill="#13A1D1" d="M425.587 93.958L431.049 35.511 403.698 35.511 403.698 99.631" transform="translate(218 236)"/><path fill="#FEFEFE" d="M403.461 91.766L386.604 86.953 385.271 73.222 393.377 73.007 393.828 80.184 403.246 83.235 413.309 79.088 413.309 69.268 384.862 68.86 383.98 61.017 404.343 52.487 383.529 52.056 382.884 44.214 424.254 44.214 424.039 52.508 403.891 60.802 422.728 61.039 420.749 86.737" transform="translate(218 236)"/></g></svg>